<svg width="24" height="24" viewBox="0 0 24 24" fill="none" xmlns="http://www.w3.org/2000/svg">
<path d="M18.7461 12.3959C18.9087 12.2333 19 12.0128 19 11.7829C19 11.5529 18.9087 11.3324 18.7461 11.1698L13.841 6.26471C13.761 6.1819 13.6653 6.11584 13.5596 6.0704C13.4538 6.02495 13.34 6.00103 13.2249 6.00003C13.1097 5.99903 12.9955 6.02097 12.889 6.06457C12.7824 6.10817 12.6856 6.17255 12.6042 6.25396C12.5228 6.33538 12.4584 6.43219 12.4148 6.53875C12.3712 6.64531 12.3493 6.75949 12.3503 6.87462C12.3513 6.98975 12.3752 7.10353 12.4206 7.20932C12.4661 7.31511 12.5321 7.41079 12.6149 7.49078L16.0399 10.9158H4.55709C4.32712 10.9158 4.10657 11.0071 3.94396 11.1697C3.78135 11.3324 3.69 11.5529 3.69 11.7829C3.69 12.0128 3.78135 12.2334 3.94396 12.396C4.10657 12.5586 4.32712 12.65 4.55709 12.65H16.0399L12.6149 16.075C12.457 16.2385 12.3696 16.4575 12.3716 16.6849C12.3736 16.9122 12.4647 17.1297 12.6255 17.2905C12.7863 17.4512 13.0037 17.5424 13.2311 17.5444C13.4584 17.5464 13.6775 17.459 13.841 17.301L18.7461 12.3959Z" fill="white"/>
</svg>
