<svg width="48" height="48" viewBox="0 0 48 48" fill="none" xmlns="http://www.w3.org/2000/svg">
<path d="M43 11.75C43 11.8881 42.8881 12 42.75 12H30.25C30.1119 12 30 11.8881 30 11.75V11.75C30 11.6119 30.1119 11.5 30.25 11.5H42.75C42.8881 11.5 43 11.6119 43 11.75V11.75ZM46.4742 32.9997C45.6272 35.4856 42.5854 38.7498 36.6974 38.7498C30.8057 38.7498 26.0332 35.4357 26.0332 27.8725C26.0332 20.3786 30.4895 16.526 36.5097 16.526C42.4168 16.526 46.0239 19.9416 46.8117 25.0092C46.9612 25.9789 47.0205 27.2863 46.9938 29.1109H31.6089C31.858 35.2653 38.2844 35.4587 40.4025 32.9997H46.4742ZM31.743 25.3331H41.259C41.0577 22.3679 39.0818 21.0799 36.5116 21.0799C33.7017 21.0799 32.1473 22.5519 31.743 25.3331ZM13.393 38.7268H1V10.04H14.3264C24.8221 10.1953 25.0212 20.4743 19.5397 23.2764C26.1733 25.6914 26.3955 38.7268 13.393 38.7268ZM6.74992 21.4997H13.6192C18.4261 21.4997 19.189 15.7498 13.0212 15.7498H6.74992V21.4997ZM13.2493 27.2497H6.74992V33.0303H13.1534C19.0088 33.0303 18.6504 27.2497 13.2493 27.2497Z" stroke="white" stroke-width="1.6" stroke-linejoin="round"/>
</svg>
