<svg width="16" height="16" viewBox="0 0 16 16" fill="none" xmlns="http://www.w3.org/2000/svg">
<path d="M3.85528 9.03036L3.85546 9.03034L3.8541 9.02357L2.8386 3.95137C2.71232 3.32063 2.15846 2.86667 1.51521 2.86667C0.652155 2.86667 0.0108522 3.66555 0.197491 4.50819L2.00098 12.6505C2.14972 13.322 2.74513 13.8 3.43294 13.8H4.69172C5.34642 13.8 5.92184 13.3661 6.10186 12.7366L7.35062 8.36999L7.35081 8.37005L7.35241 8.36306L8.00748 5.49912L8.66255 8.36306L8.66239 8.3631L8.66414 8.36933L9.88656 12.7293C10.0641 13.3624 10.6412 13.8 11.2988 13.8H12.5536C13.2406 13.8 13.8356 13.323 13.9851 12.6524L15.8082 4.4735C15.9919 3.64909 15.3647 2.86667 14.5201 2.86667C13.8911 2.86667 13.3495 3.31056 13.226 3.92731L12.2057 9.02357L12.2055 9.02354L12.2045 9.03036L11.903 11.0822L11.4953 9.02384L11.4956 9.02378L11.4931 9.01447L10.1023 3.94528C9.9275 3.30825 9.34845 2.86667 8.68788 2.86667H7.38446C6.72515 2.86667 6.14686 3.30661 5.97096 3.94203L4.56683 9.01418L4.56647 9.01408L4.56453 9.02384L4.15682 11.0822L3.85528 9.03036Z" fill="black" stroke="white" stroke-width="0.266667"/>
</svg>
