<svg width="180" height="180" viewBox="0 0 180 180" fill="none" xmlns="http://www.w3.org/2000/svg">
<rect width="180" height="180" fill="#0E0E0E"/>
<path d="M85.1342 42.7058C85.9433 39.918 88.4971 38 91.4 38V38C94.3029 38 96.8567 39.918 97.6658 42.7058L110.831 88.0677C114.508 100.735 132.477 100.673 136.066 87.981L149.236 41.4099C149.806 39.3927 151.647 38 153.744 38V38C156.87 38 159.119 41.0036 158.239 44.0034L130.773 137.636C129.841 140.816 126.924 143 123.61 143V143C120.287 143 117.364 140.803 116.44 137.611L104.007 94.6697C100.35 82.0365 82.4504 82.0365 78.7928 94.6697L66.3801 137.543C65.4441 140.775 62.4839 143 59.1184 143V143C55.8308 143 52.9201 140.875 51.9181 137.744L21.9437 44.0742C20.9825 41.0703 23.2236 38 26.3776 38V38C28.4137 38 30.2136 39.3232 30.821 41.2665L46.2072 90.4933C50.0865 102.905 67.7149 102.724 71.3394 90.2361L85.1342 42.7058Z" fill="white"/>
</svg>
