<svg width="16" height="16" viewBox="0 0 16 16" fill="none" xmlns="http://www.w3.org/2000/svg">
<path d="M8.00828 8.20356C9.8142 8.20356 11.3467 6.59646 11.3467 4.51716C11.3467 2.48757 9.80592 0.930176 8.00828 0.930176C6.20237 0.930176 4.65325 2.51243 4.66154 4.53373C4.66154 6.59646 6.19408 8.20356 8.00828 8.20356ZM2.83905 15.9077H13.1609C14.5278 15.9077 15 15.4935 15 14.7314C15 12.6024 12.2994 9.66983 8 9.66983C3.70888 9.66983 1 12.6024 1 14.7314C1 15.4935 1.47219 15.9077 2.83905 15.9077Z" fill="#101010"/>
<path d="M8.00828 8.20356C9.8142 8.20356 11.3467 6.59646 11.3467 4.51716C11.3467 2.48757 9.80592 0.930176 8.00828 0.930176C6.20237 0.930176 4.65325 2.51243 4.66154 4.53373C4.66154 6.59646 6.19408 8.20356 8.00828 8.20356ZM2.83905 15.9077H13.1609C14.5278 15.9077 15 15.4935 15 14.7314C15 12.6024 12.2994 9.66983 8 9.66983C3.70888 9.66983 1 12.6024 1 14.7314C1 15.4935 1.47219 15.9077 2.83905 15.9077Z" fill="url(#paint0_linear_158_58)"/>
<defs>
<linearGradient id="paint0_linear_158_58" x1="1" y1="0.930176" x2="15" y2="16.0968" gradientUnits="userSpaceOnUse">
<stop stop-color="#E040FB"/>
<stop offset="1" stop-color="#2979FF"/>
</linearGradient>
</defs>
</svg>
