<svg width="22" height="22" viewBox="0 0 22 22" fill="none" xmlns="http://www.w3.org/2000/svg">
<g clip-path="url(#clip0_7_32)">
<path d="M11 0C10.2373 0 9.625 0.612304 9.625 1.375V2.75C9.625 3.5127 10.2373 4.125 11 4.125C11.7627 4.125 12.375 3.5127 12.375 2.75V1.375C12.375 0.612304 11.7627 0 11 0ZM4.13574 2.75537C3.78125 2.75537 3.43213 2.89502 3.16357 3.16357C2.62109 3.70068 2.62109 4.56543 3.16357 5.10791L4.13574 6.08008C4.67285 6.61719 5.5376 6.61719 6.08008 6.08008C6.61719 5.5376 6.61719 4.67285 6.08008 4.13574L5.10791 3.16357C4.83935 2.89502 4.48486 2.75537 4.13574 2.75537ZM17.8643 2.75537C17.5151 2.75537 17.1606 2.89502 16.8921 3.16357L15.9199 4.13574C15.3828 4.67285 15.3828 5.5376 15.9199 6.08008C16.4624 6.61719 17.3271 6.61719 17.8643 6.08008L18.8364 5.10791C19.3789 4.56543 19.3789 3.70068 18.8364 3.16357C18.5679 2.89502 18.2188 2.75537 17.8643 2.75537ZM11 5.5C7.95996 5.5 5.5 7.95996 5.5 11C5.5 14.04 7.95996 16.5 11 16.5C14.04 16.5 16.5 14.04 16.5 11C16.5 7.95996 14.04 5.5 11 5.5ZM1.375 9.625C0.612304 9.625 0 10.2373 0 11C0 11.7627 0.612304 12.375 1.375 12.375H2.75C3.5127 12.375 4.125 11.7627 4.125 11C4.125 10.2373 3.5127 9.625 2.75 9.625H1.375ZM19.25 9.625C18.4873 9.625 17.875 10.2373 17.875 11C17.875 11.7627 18.4873 12.375 19.25 12.375H20.625C21.3877 12.375 22 11.7627 22 11C22 10.2373 21.3877 9.625 20.625 9.625H19.25ZM5.03809 15.5171C4.71045 15.5332 4.38818 15.6675 4.13574 15.9199L3.16357 16.8921C2.62109 17.4346 2.62109 18.2993 3.16357 18.8364C3.70068 19.3789 4.56543 19.3789 5.10791 18.8364L6.08008 17.8643C6.61719 17.3271 6.61719 16.4624 6.08008 15.9199C5.79004 15.6353 5.41406 15.501 5.03809 15.5171ZM16.8276 15.5171C16.5 15.5332 16.1724 15.6675 15.9199 15.9199C15.3828 16.4624 15.3828 17.3271 15.9199 17.8643L16.8921 18.8364C17.4346 19.3789 18.2993 19.3789 18.8364 18.8364C19.3789 18.2993 19.3789 17.4346 18.8364 16.8921L17.8643 15.9199C17.5796 15.6353 17.1982 15.501 16.8276 15.5171ZM10.9302 17.875C10.1997 17.9126 9.625 18.5142 9.625 19.25V20.625C9.625 21.3877 10.2373 22 11 22C11.7627 22 12.375 21.3877 12.375 20.625V19.25C12.375 18.4873 11.7627 17.875 11 17.875C10.9785 17.875 10.9517 17.875 10.9302 17.875Z" fill="#252525"/>
</g>
<defs>
<clipPath id="clip0_7_32">
<rect width="22" height="22" fill="#252525"/>
</clipPath>
</defs>
</svg>
