<svg width="22" height="22" viewBox="0 0 22 22" fill="none" xmlns="http://www.w3.org/2000/svg">
<path d="M11 1.375C7.97607 1.375 5.5 3.85107 5.5 6.875V9.625C3.97461 9.625 2.75 10.8496 2.75 12.375V19.25C2.75 20.0127 3.3623 20.625 4.125 20.625H17.875C18.6377 20.625 19.25 20.0127 19.25 19.25V12.375C19.25 10.8496 18.0254 9.625 16.5 9.625V6.875C16.5 3.85107 14.0239 1.375 11 1.375ZM11 4.125C12.5469 4.125 13.75 5.32812 13.75 6.875V9.625H8.25V6.875C8.25 5.32812 9.45312 4.125 11 4.125Z" fill="#252525"/>
</svg>
