<svg width="22" height="22" viewBox="0 0 22 22" fill="none" xmlns="http://www.w3.org/2000/svg">
<g clip-path="url(#clip0_8_52)">
<path d="M11 1.83337C10.3689 1.83337 9.85421 2.3481 9.85421 2.97921C9.85421 3.61031 10.3689 4.12504 11 4.12504C11.6311 4.12504 12.1459 3.61031 12.1459 2.97921C12.1459 2.3481 11.6311 1.83337 11 1.83337ZM5.32906 4.18323C5.03365 4.18323 4.74272 4.29513 4.51892 4.51892C4.07133 4.96651 4.07133 5.69161 4.51892 6.1392C4.96651 6.58679 5.69161 6.58679 6.1392 6.1392C6.58679 5.69161 6.58679 4.96651 6.1392 4.51892C5.91541 4.29513 5.62447 4.18323 5.32906 4.18323ZM16.671 4.18323C16.3756 4.18323 16.0847 4.29513 15.8609 4.51892C15.4133 4.96651 15.4133 5.69161 15.8609 6.1392C16.3085 6.58679 17.0336 6.58679 17.4812 6.1392C17.9288 5.69161 17.9288 4.96651 17.4812 4.51892C17.2574 4.29513 16.9664 4.18323 16.671 4.18323V4.18323ZM11 5.27087C7.83557 5.27087 5.27087 7.83557 5.27087 11C5.27087 14.1645 7.83557 16.7292 11 16.7292C14.1645 16.7292 16.7292 14.1645 16.7292 11C16.7292 7.83557 14.1645 5.27087 11 5.27087V5.27087ZM11 7.56254C11.2104 7.56254 11.4208 7.58492 11.6311 7.62073C10.5883 7.86243 9.85421 8.78894 9.85421 9.85421C9.85421 11.1209 10.8792 12.1459 12.1459 12.1459C13.2111 12.1459 14.1377 11.4073 14.3794 10.3689C14.4152 10.5748 14.4375 10.7897 14.4375 11C14.4375 12.8978 12.8978 14.4375 11 14.4375C9.10225 14.4375 7.56254 12.8978 7.56254 11C7.56254 9.10225 9.10225 7.56254 11 7.56254V7.56254ZM2.97921 9.85421C2.3481 9.85421 1.83337 10.3689 1.83337 11C1.83337 11.6311 2.3481 12.1459 2.97921 12.1459C3.61031 12.1459 4.12504 11.6311 4.12504 11C4.12504 10.3689 3.61031 9.85421 2.97921 9.85421ZM19.0209 9.85421C18.3898 9.85421 17.875 10.3689 17.875 11C17.875 11.6311 18.3898 12.1459 19.0209 12.1459C19.652 12.1459 20.1667 11.6311 20.1667 11C20.1667 10.3689 19.652 9.85421 19.0209 9.85421ZM5.32906 15.5252C5.03365 15.5252 4.74272 15.6371 4.51892 15.8609C4.07133 16.3085 4.07133 17.0336 4.51892 17.4812C4.96651 17.9288 5.69161 17.9288 6.1392 17.4812C6.58679 17.0336 6.58679 16.3085 6.1392 15.8609C5.91541 15.6371 5.62447 15.5252 5.32906 15.5252ZM16.671 15.5252C16.3756 15.5252 16.0847 15.6371 15.8609 15.8609C15.4133 16.3085 15.4133 17.0336 15.8609 17.4812C16.3085 17.9288 17.0336 17.9288 17.4812 17.4812C17.9288 17.0336 17.9288 16.3085 17.4812 15.8609C17.2574 15.6371 16.9664 15.5252 16.671 15.5252V15.5252ZM11 17.875C10.3689 17.875 9.85421 18.3898 9.85421 19.0209C9.85421 19.652 10.3689 20.1667 11 20.1667C11.6311 20.1667 12.1459 19.652 12.1459 19.0209C12.1459 18.3898 11.6311 17.875 11 17.875Z" fill="#252525"/>
<path fill-rule="evenodd" clip-rule="evenodd" d="M9.625 1.375C9.625 0.612304 10.2373 0 11 0C11.7627 0 12.375 0.612304 12.375 1.375V2.75C12.375 3.5127 11.7627 4.125 11 4.125C10.2373 4.125 9.625 3.5127 9.625 2.75V1.375ZM3.16357 3.16357C3.43213 2.89502 3.78125 2.75537 4.13574 2.75537C4.48486 2.75537 4.83935 2.89502 5.10791 3.16357L6.08008 4.13574C6.61719 4.67285 6.61719 5.5376 6.08008 6.08008C5.5376 6.61719 4.67285 6.61719 4.13574 6.08008L3.16357 5.10791C2.62109 4.56543 2.62109 3.70068 3.16357 3.16357ZM16.8921 3.16357C17.1606 2.89502 17.5151 2.75537 17.8643 2.75537C18.2188 2.75537 18.5679 2.89502 18.8364 3.16357C19.3789 3.70068 19.3789 4.56543 18.8364 5.10791L17.8643 6.08008C17.3271 6.61719 16.4624 6.61719 15.9199 6.08008C15.3828 5.5376 15.3828 4.67285 15.9199 4.13574L16.8921 3.16357ZM11 5.5C7.95996 5.5 5.5 7.95996 5.5 11C5.5 7.96243 7.96243 5.5 11 5.5ZM5.5 11C5.5 14.04 7.95996 16.5 11 16.5C7.96243 16.5 5.5 14.0376 5.5 11ZM11 5.5C14.0376 5.5 16.5 7.96243 16.5 11C16.5 7.95996 14.04 5.5 11 5.5ZM16.5 11C16.5 14.0376 14.0376 16.5 11 16.5C14.04 16.5 16.5 14.04 16.5 11ZM0 11C0 10.2373 0.612304 9.625 1.375 9.625H2.75C3.5127 9.625 4.125 10.2373 4.125 11C4.125 11.7627 3.5127 12.375 2.75 12.375H1.375C0.612304 12.375 0 11.7627 0 11ZM17.875 11C17.875 10.2373 18.4873 9.625 19.25 9.625H20.625C21.3877 9.625 22 10.2373 22 11C22 11.7627 21.3877 12.375 20.625 12.375H19.25C18.4873 12.375 17.875 11.7627 17.875 11ZM4.13574 15.9199C4.38818 15.6675 4.71045 15.5332 5.03809 15.5171C5.41406 15.501 5.79004 15.6353 6.08008 15.9199C6.61719 16.4624 6.61719 17.3271 6.08008 17.8643L5.10791 18.8364C4.56543 19.3789 3.70068 19.3789 3.16357 18.8364C2.62109 18.2993 2.62109 17.4346 3.16357 16.8921L4.13574 15.9199ZM15.9199 15.9199C16.1724 15.6675 16.5 15.5332 16.8276 15.5171C17.1982 15.501 17.5796 15.6353 17.8643 15.9199L18.8364 16.8921C19.3789 17.4346 19.3789 18.2993 18.8364 18.8364C18.2993 19.3789 17.4346 19.3789 16.8921 18.8364L15.9199 17.8643C15.3828 17.3271 15.3828 16.4624 15.9199 15.9199ZM9.625 19.25C9.625 18.5142 10.1997 17.9126 10.9302 17.875H11C11.7627 17.875 12.375 18.4873 12.375 19.25V20.625C12.375 21.3877 11.7627 22 11 22C10.2373 22 9.625 21.3877 9.625 20.625V19.25Z" fill="#252525"/>
</g>
<defs>
<clipPath id="clip0_8_52">
<rect width="22" height="22" fill="#252525"/>
</clipPath>
</defs>
</svg>
