<svg width="22" height="22" viewBox="0 0 22 22" fill="none" xmlns="http://www.w3.org/2000/svg">
<path d="M10.3125 1.40186C9.55518 1.40186 8.94287 2.01416 8.94287 2.77148V3.39453C8.29297 3.57178 7.66455 3.83496 7.0791 4.17334L6.6333 3.72754C6.09619 3.19043 5.23145 3.19043 4.69434 3.72754L3.72754 4.69971C3.19043 5.23682 3.19043 6.10156 3.72754 6.63867L4.16797 7.0791C3.82959 7.66455 3.57178 8.29297 3.39453 8.94287H2.77148C2.01416 8.94287 1.40186 9.55518 1.40186 10.3125V11.6875C1.40186 12.4448 2.01416 13.0571 2.77148 13.0571H3.38916C3.57178 13.707 3.82959 14.3354 4.16797 14.9209L3.72754 15.3613C3.19043 15.8984 3.19043 16.7632 3.72754 17.3003L4.69434 18.2725C5.23145 18.8096 6.09619 18.8096 6.6333 18.2725L7.07373 17.832C7.66455 18.165 8.2876 18.4282 8.94287 18.6001V19.2285C8.94287 19.9858 9.55518 20.5981 10.3125 20.5981H11.6821C12.4448 20.5981 13.0571 19.9858 13.0571 19.2285V18.6055C13.707 18.4282 14.3354 18.165 14.9209 17.8267L15.3613 18.2725C15.8984 18.8096 16.7632 18.8096 17.3003 18.2725L18.2725 17.3003C18.8096 16.7632 18.8096 15.8984 18.2725 15.3613L17.832 14.9209C18.165 14.3354 18.4282 13.707 18.6001 13.0571H19.2231C19.9858 13.0571 20.5981 12.4448 20.5981 11.6875V10.3125C20.5981 9.55518 19.9858 8.94287 19.2231 8.94287H18.6055C18.4282 8.29297 18.165 7.66455 17.8267 7.0791L18.2725 6.63867C18.8096 6.10156 18.8096 5.23682 18.2725 4.69971L17.3003 3.72754C16.7632 3.19043 15.8984 3.19043 15.3613 3.72754L14.9209 4.16797C14.3354 3.83496 13.707 3.57715 13.0571 3.3999V2.77148C13.0571 2.01416 12.4448 1.40186 11.6821 1.40186H10.3125ZM11.0215 6.86963C13.3042 6.86963 15.1465 8.71729 15.1465 10.9946C15.1465 13.272 13.3042 15.1196 11.0215 15.1196C8.74414 15.1196 6.89648 13.272 6.89648 10.9946C6.89648 8.71729 8.74414 6.86963 11.0215 6.86963Z" fill="#252525"/>
</svg>
