<svg width="381" height="166" viewBox="0 0 381 166" fill="none" xmlns="http://www.w3.org/2000/svg">
<g clip-path="url(#clip0_27_1474)">
<path fill-rule="evenodd" clip-rule="evenodd" d="M390 -1.55859H0V167.441H390V-1.55859ZM53.32 45.5V73.5H59.4V57.0563L67.6 70.54H70.52L78.764 56.6943L78.8 73.5H84.88L84.8 45.5H79.48L69.168 62.8861L58.68 45.5H53.32ZM95.2031 72.38C96.9898 73.34 99.0298 73.82 101.323 73.82C103.59 73.82 105.616 73.34 107.403 72.38C109.19 71.42 110.59 70.1133 111.603 68.46C112.616 66.78 113.123 64.8733 113.123 62.74C113.123 60.5533 112.616 58.6333 111.603 56.98C110.59 55.3267 109.19 54.0333 107.403 53.1C105.616 52.14 103.59 51.66 101.323 51.66C99.0298 51.66 96.9898 52.14 95.2031 53.1C93.4431 54.0333 92.0431 55.34 91.0031 57.02C89.9898 58.6733 89.4831 60.58 89.4831 62.74C89.4831 64.8733 89.9898 66.78 91.0031 68.46C92.0431 70.1133 93.4431 71.42 95.2031 72.38ZM104.123 67.98C103.296 68.46 102.363 68.7 101.323 68.7C100.283 68.7 99.3498 68.46 98.5231 67.98C97.6965 67.5 97.0298 66.82 96.5231 65.94C96.0431 65.0333 95.8031 63.9667 95.8031 62.74C95.8031 61.4867 96.0431 60.42 96.5231 59.54C97.0298 58.66 97.6965 57.98 98.5231 57.5C99.3498 57.02 100.283 56.78 101.323 56.78C102.363 56.78 103.296 57.02 104.123 57.5C104.95 57.98 105.603 58.66 106.083 59.54C106.563 60.42 106.803 61.4867 106.803 62.74C106.803 63.9667 106.563 65.0333 106.083 65.94C105.603 66.82 104.95 67.5 104.123 67.98ZM134.934 52.7C133.601 52.0067 132.081 51.66 130.374 51.66C128.534 51.66 126.894 52.0467 125.454 52.82C124.605 53.2761 123.871 53.8481 123.254 54.5361V51.98H117.294V73.5H123.534V62.86C123.534 61.5267 123.747 60.4333 124.174 59.58C124.627 58.7267 125.241 58.1 126.014 57.7C126.814 57.2733 127.707 57.06 128.694 57.06C130.081 57.06 131.147 57.4733 131.894 58.3C132.667 59.1267 133.054 60.4067 133.054 62.14V73.5H139.294V61.18C139.294 58.9933 138.907 57.2067 138.134 55.82C137.361 54.4067 136.294 53.3667 134.934 52.7ZM149.227 72.38C151.013 73.34 153.053 73.82 155.347 73.82C157.613 73.82 159.64 73.34 161.427 72.38C163.213 71.42 164.613 70.1133 165.627 68.46C166.64 66.78 167.147 64.8733 167.147 62.74C167.147 60.5533 166.64 58.6333 165.627 56.98C164.613 55.3267 163.213 54.0333 161.427 53.1C159.64 52.14 157.613 51.66 155.347 51.66C153.053 51.66 151.013 52.14 149.227 53.1C147.467 54.0333 146.067 55.34 145.027 57.02C144.013 58.6733 143.507 60.58 143.507 62.74C143.507 64.8733 144.013 66.78 145.027 68.46C146.067 70.1133 147.467 71.42 149.227 72.38ZM158.147 67.98C157.32 68.46 156.387 68.7 155.347 68.7C154.307 68.7 153.373 68.46 152.547 67.98C151.72 67.5 151.053 66.82 150.547 65.94C150.067 65.0333 149.827 63.9667 149.827 62.74C149.827 61.4867 150.067 60.42 150.547 59.54C151.053 58.66 151.72 57.98 152.547 57.5C153.373 57.02 154.307 56.78 155.347 56.78C156.387 56.78 157.32 57.02 158.147 57.5C158.973 57.98 159.627 58.66 160.107 59.54C160.587 60.42 160.827 61.4867 160.827 62.74C160.827 63.9667 160.587 65.0333 160.107 65.94C159.627 66.82 158.973 67.5 158.147 67.98ZM183.086 45.5V73.5H189.566V45.5H183.086ZM199.971 72.42C201.784 73.3533 203.851 73.82 206.171 73.82C208.437 73.82 210.411 73.3533 212.091 72.42C213.771 71.46 215.011 70.1133 215.811 68.38L210.971 65.74C210.411 66.78 209.704 67.54 208.851 68.02C208.024 68.4733 207.117 68.7 206.131 68.7C205.064 68.7 204.104 68.46 203.251 67.98C202.397 67.5 201.717 66.82 201.211 65.94C200.731 65.06 200.491 63.9933 200.491 62.74C200.491 61.4867 200.731 60.42 201.211 59.54C201.717 58.66 202.397 57.98 203.251 57.5C204.104 57.02 205.064 56.78 206.131 56.78C207.117 56.78 208.024 57.02 208.851 57.5C209.704 57.98 210.411 58.7267 210.971 59.74L215.811 57.14C215.011 55.38 213.771 54.0333 212.091 53.1C210.411 52.14 208.437 51.66 206.171 51.66C203.851 51.66 201.784 52.14 199.971 53.1C198.157 54.0333 196.731 55.34 195.691 57.02C194.677 58.6733 194.171 60.58 194.171 62.74C194.171 64.8733 194.677 66.78 195.691 68.46C196.731 70.14 198.157 71.46 199.971 72.42ZM223.25 72.38C225.037 73.34 227.077 73.82 229.37 73.82C231.637 73.82 233.663 73.34 235.45 72.38C237.237 71.42 238.637 70.1133 239.65 68.46C240.663 66.78 241.17 64.8733 241.17 62.74C241.17 60.5533 240.663 58.6333 239.65 56.98C238.637 55.3267 237.237 54.0333 235.45 53.1C233.663 52.14 231.637 51.66 229.37 51.66C227.077 51.66 225.037 52.14 223.25 53.1C221.49 54.0333 220.09 55.34 219.05 57.02C218.037 58.6733 217.53 60.58 217.53 62.74C217.53 64.8733 218.037 66.78 219.05 68.46C220.09 70.1133 221.49 71.42 223.25 72.38ZM232.17 67.98C231.343 68.46 230.41 68.7 229.37 68.7C228.33 68.7 227.397 68.46 226.57 67.98C225.743 67.5 225.077 66.82 224.57 65.94C224.09 65.0333 223.85 63.9667 223.85 62.74C223.85 61.4867 224.09 60.42 224.57 59.54C225.077 58.66 225.743 57.98 226.57 57.5C227.397 57.02 228.33 56.78 229.37 56.78C230.41 56.78 231.343 57.02 232.17 57.5C232.997 57.98 233.65 58.66 234.13 59.54C234.61 60.42 234.85 61.4867 234.85 62.74C234.85 63.9667 234.61 65.0333 234.13 65.94C233.65 66.82 232.997 67.5 232.17 67.98ZM262.981 52.7C261.648 52.0067 260.128 51.66 258.421 51.66C256.581 51.66 254.941 52.0467 253.501 52.82C252.652 53.2761 251.918 53.8481 251.301 54.5361V51.98H245.341V73.5H251.581V62.86C251.581 61.5267 251.794 60.4333 252.221 59.58C252.674 58.7267 253.288 58.1 254.061 57.7C254.861 57.2733 255.754 57.06 256.741 57.06C258.128 57.06 259.194 57.4733 259.941 58.3C260.714 59.1267 261.101 60.4067 261.101 62.14V73.5H267.341V61.18C267.341 58.9933 266.954 57.2067 266.181 55.82C265.408 54.4067 264.341 53.3667 262.981 52.7ZM59.12 99.78V122.5H65.6V99.78H74.56V94.5H50.16V99.78H59.12ZM95.2466 101.7C93.9132 101.007 92.3932 100.66 90.6866 100.66C88.8466 100.66 87.2066 101.047 85.7666 101.82C85.0422 102.209 84.4022 102.682 83.8466 103.24V92.82H77.6066V122.5H83.8466V111.86C83.8466 110.527 84.0599 109.433 84.4866 108.58C84.9399 107.727 85.5532 107.1 86.3266 106.7C87.1266 106.273 88.0199 106.06 89.0066 106.06C90.3932 106.06 91.4599 106.473 92.2066 107.3C92.9799 108.127 93.3666 109.407 93.3666 111.14V122.5H99.6066V110.18C99.6066 107.993 99.2199 106.207 98.4466 104.82C97.6732 103.407 96.6066 102.367 95.2466 101.7ZM109.619 121.38C111.486 122.34 113.646 122.82 116.099 122.82C118.046 122.82 119.766 122.527 121.259 121.94C122.752 121.327 123.992 120.46 124.979 119.34L121.659 115.74C120.939 116.433 120.139 116.953 119.259 117.3C118.406 117.647 117.406 117.82 116.259 117.82C114.979 117.82 113.859 117.593 112.899 117.14C111.966 116.66 111.232 115.98 110.699 115.1C110.423 114.606 110.222 114.073 110.097 113.5H126.379C126.406 113.233 126.432 112.953 126.459 112.66C126.486 112.34 126.499 112.06 126.499 111.82C126.499 109.5 126.006 107.513 125.019 105.86C124.032 104.18 122.686 102.9 120.979 102.02C119.299 101.113 117.406 100.66 115.299 100.66C113.112 100.66 111.152 101.14 109.419 102.1C107.686 103.033 106.312 104.34 105.299 106.02C104.312 107.673 103.819 109.58 103.819 111.74C103.819 113.873 104.326 115.78 105.339 117.46C106.352 119.113 107.779 120.42 109.619 121.38ZM110.025 109.86C110.128 109.193 110.327 108.593 110.619 108.06C111.072 107.207 111.699 106.553 112.499 106.1C113.326 105.62 114.272 105.38 115.339 105.38C116.406 105.38 117.339 105.62 118.139 106.1C118.939 106.553 119.566 107.193 120.019 108.02C120.32 108.569 120.521 109.182 120.622 109.86H110.025ZM162.733 101.7C161.427 101.007 159.92 100.66 158.213 100.66C156.16 100.66 154.333 101.153 152.733 102.14C151.837 102.702 151.079 103.377 150.46 104.164C149.956 103.357 149.314 102.696 148.533 102.18C147.067 101.167 145.347 100.66 143.373 100.66C141.613 100.66 140.04 101.047 138.653 101.82C137.872 102.249 137.192 102.797 136.613 103.463V100.98H130.653V122.5H136.893V111.7C136.893 110.42 137.093 109.367 137.493 108.54C137.893 107.713 138.453 107.1 139.173 106.7C139.893 106.273 140.707 106.06 141.613 106.06C142.92 106.06 143.92 106.473 144.613 107.3C145.333 108.127 145.693 109.407 145.693 111.14V122.5H151.933V111.7C151.933 110.42 152.133 109.367 152.533 108.54C152.933 107.713 153.493 107.1 154.213 106.7C154.933 106.273 155.747 106.06 156.653 106.06C157.96 106.06 158.973 106.473 159.693 107.3C160.413 108.127 160.773 109.407 160.773 111.14V122.5H167.013V110.18C167.013 107.993 166.627 106.207 165.853 104.82C165.107 103.407 164.067 102.367 162.733 101.7ZM176.963 121.38C178.829 122.34 180.989 122.82 183.443 122.82C185.389 122.82 187.109 122.527 188.603 121.94C190.096 121.327 191.336 120.46 192.323 119.34L189.003 115.74C188.283 116.433 187.483 116.953 186.603 117.3C185.749 117.647 184.749 117.82 183.603 117.82C182.323 117.82 181.203 117.593 180.243 117.14C179.309 116.66 178.576 115.98 178.043 115.1C177.767 114.606 177.566 114.073 177.44 113.5H193.723C193.735 113.381 193.747 113.258 193.759 113.134C193.773 112.98 193.788 112.822 193.803 112.66C193.829 112.34 193.843 112.06 193.843 111.82C193.843 109.5 193.349 107.513 192.363 105.86C191.376 104.18 190.029 102.9 188.323 102.02C186.643 101.113 184.749 100.66 182.643 100.66C180.456 100.66 178.496 101.14 176.763 102.1C175.029 103.033 173.656 104.34 172.643 106.02C171.656 107.673 171.163 109.58 171.163 111.74C171.163 113.873 171.669 115.78 172.683 117.46C173.696 119.113 175.123 120.42 176.963 121.38ZM177.368 109.86C177.472 109.193 177.67 108.593 177.963 108.06C178.416 107.207 179.043 106.553 179.843 106.1C180.669 105.62 181.616 105.38 182.683 105.38C183.749 105.38 184.683 105.62 185.483 106.1C186.283 106.553 186.909 107.193 187.363 108.02C187.664 108.569 187.865 109.182 187.966 109.86H177.368Z" fill="url(#paint0_linear_27_1474)"/>
</g>
<defs>
<linearGradient id="paint0_linear_27_1474" x1="0" y1="-1.55859" x2="396.746" y2="16.1148" gradientUnits="userSpaceOnUse">
<stop stop-color="#FFA8A8"/>
<stop offset="1" stop-color="#FFE1A8"/>
</linearGradient>
<clipPath id="clip0_27_1474">
<rect width="381" height="169" fill="white" transform="translate(0 -1.5)"/>
</clipPath>
</defs>
</svg>
