<svg width="380" height="166" viewBox="0 0 380 166" fill="none" xmlns="http://www.w3.org/2000/svg">
<g clip-path="url(#clip0_27_1493)">
<path fill-rule="evenodd" clip-rule="evenodd" d="M390.5 -1.55859H0.5V167.441H390.5V-1.55859ZM65.1301 96.8467C63.7783 96.6827 62.4883 96.3671 61.26 95.9C59.3933 95.18 57.7667 94.1667 56.38 92.86C55.02 91.5533 53.9533 90.02 53.18 88.26C52.4333 86.5 52.06 84.58 52.06 82.5C52.06 80.42 52.4333 78.5 53.18 76.74C53.9533 74.98 55.0333 73.4467 56.42 72.14C57.8067 70.8333 59.4333 69.82 61.3 69.1C63.1667 68.38 65.1933 68.02 67.38 68.02C69.5933 68.02 71.62 68.38 73.46 69.1C75.3267 69.82 76.94 70.8333 78.3 72.14C79.6867 73.42 80.7667 74.94 81.54 76.7C82.3133 78.46 82.7 80.3933 82.7 82.5C82.7 84.58 82.3133 86.5133 81.54 88.3C80.7667 90.06 79.6867 91.5933 78.3 92.9C76.94 94.18 75.3267 95.18 73.46 95.9C73.2088 95.9983 72.9541 96.0899 72.6959 96.1748C72.8193 96.3041 72.9406 96.4258 73.06 96.54C73.6733 97.1267 74.26 97.54 74.82 97.78C75.4067 98.02 76.02 98.14 76.66 98.14C78.3667 98.14 79.8867 97.4467 81.22 96.06L84.1 99.5C82.2067 101.793 79.6867 102.94 76.54 102.94C75.4467 102.94 74.4067 102.82 73.42 102.58C72.46 102.34 71.5 101.953 70.54 101.42C69.6067 100.887 68.62 100.167 67.58 99.26C66.8164 98.5767 65.9997 97.7723 65.1301 96.8467ZM70.82 90.82C69.78 91.2467 68.6333 91.46 67.38 91.46C66.1267 91.46 64.9667 91.2467 63.9 90.82C62.8333 90.3933 61.9 89.78 61.1 88.98C60.3267 88.18 59.7133 87.2333 59.26 86.14C58.8333 85.02 58.62 83.8067 58.62 82.5C58.62 81.1667 58.8333 79.9533 59.26 78.86C59.7133 77.7667 60.3267 76.82 61.1 76.02C61.9 75.22 62.8333 74.6067 63.9 74.18C64.9667 73.7533 66.1267 73.54 67.38 73.54C68.6333 73.54 69.78 73.7533 70.82 74.18C71.8867 74.6067 72.82 75.22 73.62 76.02C74.42 76.82 75.0333 77.7667 75.46 78.86C75.9133 79.9533 76.14 81.1667 76.14 82.5C76.14 83.8067 75.9133 85.02 75.46 86.14C75.0333 87.2333 74.42 88.18 73.62 88.98C72.82 89.78 71.8867 90.3933 70.82 90.82ZM92.9794 73.78V96.5H99.4594V73.78H108.419V68.5H84.0194V73.78H92.9794ZM115.639 68.5H108.919L118.079 96.5H125.039L131.386 77.5282L137.559 96.5H144.519L153.679 68.5H147.479L140.955 88.3277L134.559 68.5H128.559L121.956 88.1816L115.639 68.5ZM157.208 74.98V96.5H163.448V74.98H157.208ZM157.528 70.98C158.248 71.6467 159.181 71.98 160.328 71.98C161.501 71.98 162.435 71.6467 163.128 70.98C163.848 70.2867 164.208 69.42 164.208 68.38C164.208 67.3933 163.848 66.5933 163.128 65.98C162.408 65.34 161.475 65.02 160.328 65.02C159.181 65.02 158.248 65.3533 157.528 66.02C156.808 66.6867 156.448 67.5133 156.448 68.5C156.448 69.4867 156.808 70.3133 157.528 70.98ZM186.879 75.7C185.546 75.0067 184.026 74.66 182.319 74.66C180.479 74.66 178.839 75.0467 177.399 75.82C176.55 76.2761 175.817 76.8481 175.199 77.5361V74.98H169.239V96.5H175.479V85.86C175.479 84.5267 175.693 83.4333 176.119 82.58C176.573 81.7267 177.186 81.1 177.959 80.7C178.759 80.2733 179.653 80.06 180.639 80.06C182.026 80.06 183.093 80.4733 183.839 81.3C184.613 82.1267 184.999 83.4067 184.999 85.14V96.5H191.239V84.18C191.239 81.9933 190.853 80.2067 190.079 78.82C189.306 77.4067 188.239 76.3667 186.879 75.7ZM199.153 73.7V96.5H205.633V68.5H193.553V73.7H199.153ZM214.818 73.7V96.5H221.298V68.5H209.217V73.7H214.818Z" fill="url(#paint0_linear_27_1493)"/>
</g>
<defs>
<linearGradient id="paint0_linear_27_1493" x1="0.5" y1="-1.55859" x2="397.246" y2="16.1148" gradientUnits="userSpaceOnUse">
<stop stop-color="#AFFFA8"/>
<stop offset="1" stop-color="#A8CBFF"/>
</linearGradient>
<clipPath id="clip0_27_1493">
<rect width="381" height="169" fill="white" transform="translate(0.5 -1.5)"/>
</clipPath>
</defs>
</svg>
