<svg width="49" height="48" viewBox="0 0 49 48" fill="none" xmlns="http://www.w3.org/2000/svg">
<path d="M24.7349 17.334H18.0689M24.7349 17.334V4H18.0689C16.3007 4 14.6049 4.70241 13.3546 5.95272C12.1043 7.20302 11.4019 8.8988 11.4019 10.667C11.4019 12.4352 12.1043 14.131 13.3546 15.3813C14.6049 16.6316 16.3007 17.334 18.0689 17.334M24.7349 17.334V30.666H18.0689M24.7349 17.334H31.4009M18.0689 17.334C16.3009 17.334 14.6054 18.0363 13.3553 19.2864C12.1052 20.5365 11.4029 22.2321 11.4029 24C11.4029 25.7679 12.1052 27.4635 13.3553 28.7136C14.6054 29.9637 16.3009 30.666 18.0689 30.666M18.0689 30.666C16.7505 30.666 15.4618 31.0569 14.3656 31.7893C13.2695 32.5217 12.4151 33.5626 11.9105 34.7806C11.4059 35.9985 11.2737 37.3387 11.5308 38.6317C11.7878 39.9248 12.4225 41.1125 13.3546 42.0449C14.2866 42.9772 15.4742 43.6122 16.7672 43.8697C18.0601 44.1271 19.4004 43.9954 20.6184 43.4912C21.8365 42.9869 22.8778 42.1328 23.6105 41.0369C24.3432 39.9409 24.7345 38.6523 24.7349 37.334M31.4009 17.334C29.6329 17.334 27.9374 18.0363 26.6873 19.2864C25.4372 20.5365 24.7349 22.2321 24.7349 24C24.7349 25.7679 25.4372 27.4635 26.6873 28.7136C27.9374 29.9637 29.6329 30.666 31.4009 30.666C33.1688 30.666 34.8643 29.9637 36.1144 28.7136C37.3645 27.4635 38.0669 25.7679 38.0669 24C38.0669 22.2321 37.3645 20.5365 36.1144 19.2864C34.8643 18.0363 33.1688 17.334 31.4009 17.334ZM31.4009 17.334C33.1691 17.334 34.8648 16.6316 36.1151 15.3813C37.3654 14.131 38.0679 12.4352 38.0679 10.667C38.0679 8.8988 37.3654 7.20302 36.1151 5.95272C34.8648 4.70241 33.1691 4 31.4009 4" stroke="white" stroke-width="2" stroke-linecap="round" stroke-linejoin="round"/>
</svg>
