<svg width="48" height="48" viewBox="0 0 48 48" fill="none" xmlns="http://www.w3.org/2000/svg">
<path d="M32.0002 44.0541V38.3141C32.0752 37.3604 31.9463 36.4017 31.6222 35.5017C31.298 34.6016 30.786 33.7809 30.1202 33.0941C36.4002 32.3941 43.0002 30.0141 43.0002 19.0941C42.9996 16.3017 41.9255 13.6165 40.0002 11.5941C40.9119 9.15109 40.8474 6.45077 39.8202 4.05407C39.8202 4.05407 37.4602 3.35407 32.0002 7.01407C27.4162 5.77172 22.5841 5.77172 18.0002 7.01407C12.5402 3.35407 10.1802 4.05407 10.1802 4.05407C9.15291 6.45077 9.08844 9.15109 10.0002 11.5941C8.06041 13.6315 6.9852 16.341 7.00015 19.1541C7.00015 29.9941 13.6002 32.3741 19.8802 33.1541C19.2221 33.834 18.7147 34.6449 18.3908 35.5339C18.0669 36.4229 17.9338 37.3702 18.0002 38.3141V44.0541" stroke="white" stroke-width="2" stroke-linecap="round" stroke-linejoin="round"/>
<path d="M18 40.0542C12 42.0002 7 40.0542 4 34.0542" stroke="white" stroke-width="2" stroke-linecap="round" stroke-linejoin="round"/>
</svg>
