<svg width="380" height="167" viewBox="0 0 380 167" fill="none" xmlns="http://www.w3.org/2000/svg">
<g clip-path="url(#clip0_27_1470)">
<path fill-rule="evenodd" clip-rule="evenodd" d="M390 -0.0585938H0V168.941H390V-0.0585938ZM53.32 47V75H59.4V58.5563L67.6 72.04H70.52L78.764 58.1943L78.8 75H84.88L84.8 47H79.48L69.168 64.3861L58.68 47H53.32ZM95.2031 73.88C96.9898 74.84 99.0298 75.32 101.323 75.32C103.59 75.32 105.616 74.84 107.403 73.88C109.19 72.92 110.59 71.6133 111.603 69.96C112.616 68.28 113.123 66.3733 113.123 64.24C113.123 62.0533 112.616 60.1333 111.603 58.48C110.59 56.8267 109.19 55.5333 107.403 54.6C105.616 53.64 103.59 53.16 101.323 53.16C99.0298 53.16 96.9898 53.64 95.2031 54.6C93.4431 55.5333 92.0431 56.84 91.0031 58.52C89.9898 60.1733 89.4831 62.08 89.4831 64.24C89.4831 66.3733 89.9898 68.28 91.0031 69.96C92.0431 71.6133 93.4431 72.92 95.2031 73.88ZM104.123 69.48C103.296 69.96 102.363 70.2 101.323 70.2C100.283 70.2 99.3498 69.96 98.5231 69.48C97.6965 69 97.0298 68.32 96.5231 67.44C96.0431 66.5333 95.8031 65.4667 95.8031 64.24C95.8031 62.9867 96.0431 61.92 96.5231 61.04C97.0298 60.16 97.6965 59.48 98.5231 59C99.3498 58.52 100.283 58.28 101.323 58.28C102.363 58.28 103.296 58.52 104.123 59C104.95 59.48 105.603 60.16 106.083 61.04C106.563 61.92 106.803 62.9867 106.803 64.24C106.803 65.4667 106.563 66.5333 106.083 67.44C105.603 68.32 104.95 69 104.123 69.48ZM134.934 54.2C133.601 53.5067 132.081 53.16 130.374 53.16C128.534 53.16 126.894 53.5467 125.454 54.32C124.605 54.7761 123.871 55.3481 123.254 56.0361V53.48H117.294V75H123.534V64.36C123.534 63.0267 123.747 61.9333 124.174 61.08C124.627 60.2267 125.241 59.6 126.014 59.2C126.814 58.7733 127.707 58.56 128.694 58.56C130.081 58.56 131.147 58.9733 131.894 59.8C132.667 60.6267 133.054 61.9067 133.054 63.64V75H139.294V62.68C139.294 60.4933 138.907 58.7067 138.134 57.32C137.361 55.9067 136.294 54.8667 134.934 54.2ZM149.227 73.88C151.013 74.84 153.053 75.32 155.347 75.32C157.613 75.32 159.64 74.84 161.427 73.88C163.213 72.92 164.613 71.6133 165.627 69.96C166.64 68.28 167.147 66.3733 167.147 64.24C167.147 62.0533 166.64 60.1333 165.627 58.48C164.613 56.8267 163.213 55.5333 161.427 54.6C159.64 53.64 157.613 53.16 155.347 53.16C153.053 53.16 151.013 53.64 149.227 54.6C147.467 55.5333 146.067 56.84 145.027 58.52C144.013 60.1733 143.507 62.08 143.507 64.24C143.507 66.3733 144.013 68.28 145.027 69.96C146.067 71.6133 147.467 72.92 149.227 73.88ZM158.147 69.48C157.32 69.96 156.387 70.2 155.347 70.2C154.307 70.2 153.373 69.96 152.547 69.48C151.72 69 151.053 68.32 150.547 67.44C150.067 66.5333 149.827 65.4667 149.827 64.24C149.827 62.9867 150.067 61.92 150.547 61.04C151.053 60.16 151.72 59.48 152.547 59C153.373 58.52 154.307 58.28 155.347 58.28C156.387 58.28 157.32 58.52 158.147 59C158.973 59.48 159.627 60.16 160.107 61.04C160.587 61.92 160.827 62.9867 160.827 64.24C160.827 65.4667 160.587 66.5333 160.107 67.44C159.627 68.32 158.973 69 158.147 69.48ZM189.566 64.8V75H183.086V47H204.246V52.2H189.566V59.6H202.526V64.8H189.566ZM208.512 49.48C209.232 50.1467 210.166 50.48 211.312 50.48C212.486 50.48 213.419 50.1467 214.113 49.48C214.833 48.7867 215.193 47.92 215.193 46.88C215.193 45.8933 214.833 45.0933 214.113 44.48C213.393 43.84 212.459 43.52 211.312 43.52C210.166 43.52 209.232 43.8533 208.512 44.52C207.792 45.1867 207.432 46.0133 207.432 47C207.432 47.9867 207.792 48.8133 208.512 49.48ZM226.184 53.48H220.224V75H226.464V64.84C226.464 62.7867 226.984 61.28 228.024 60.32C229.09 59.3333 230.477 58.84 232.184 58.84C232.424 58.84 232.65 58.8533 232.864 58.88C233.077 58.88 233.317 58.8933 233.584 58.92V53.16C231.557 53.16 229.837 53.56 228.424 54.36C227.518 54.8554 226.772 55.5039 226.184 56.3056V53.48ZM208.193 53.48V75H214.432V53.48H208.193ZM241.338 73.88C243.204 74.84 245.364 75.32 247.818 75.32C249.764 75.32 251.484 75.0267 252.978 74.44C254.471 73.8267 255.711 72.96 256.698 71.84L253.378 68.24C252.658 68.9333 251.858 69.4533 250.978 69.8C250.124 70.1467 249.124 70.32 247.978 70.32C246.698 70.32 245.578 70.0933 244.618 69.64C243.684 69.16 242.951 68.48 242.418 67.6C242.142 67.1062 241.941 66.5729 241.815 66H258.098C258.124 65.7333 258.151 65.4533 258.178 65.16C258.204 64.84 258.218 64.56 258.218 64.32C258.218 62 257.724 60.0133 256.738 58.36C255.751 56.68 254.404 55.4 252.698 54.52C251.018 53.6133 249.124 53.16 247.018 53.16C244.831 53.16 242.871 53.64 241.138 54.6C239.404 55.5333 238.031 56.84 237.018 58.52C236.031 60.1733 235.538 62.08 235.538 64.24C235.538 66.3733 236.044 68.28 237.058 69.96C238.071 71.6133 239.498 72.92 241.338 73.88ZM241.743 62.36C241.847 61.6934 242.045 61.0934 242.338 60.56C242.791 59.7067 243.418 59.0533 244.218 58.6C245.044 58.12 245.991 57.88 247.058 57.88C248.124 57.88 249.058 58.12 249.858 58.6C250.658 59.0533 251.284 59.6933 251.738 60.52C252.039 61.0687 252.24 61.682 252.341 62.36H241.743ZM263.132 58.76V75H269.372V58.76H274.732V53.96H269.212V53.04C269.212 52 269.452 51.2267 269.932 50.72C270.439 50.1867 271.146 49.92 272.052 49.92C272.532 49.92 272.986 49.9867 273.412 50.12C273.839 50.2533 274.226 50.44 274.572 50.68L276.212 46.16C275.626 45.76 274.906 45.4667 274.052 45.28C273.226 45.0933 272.359 45 271.452 45C268.786 45 266.732 45.7333 265.292 47.2C263.852 48.64 263.132 50.5733 263.132 53V53.96H259.812V58.76H263.132ZM281.688 73.88C283.474 74.84 285.514 75.32 287.807 75.32C290.074 75.32 292.101 74.84 293.888 73.88C295.674 72.92 297.074 71.6133 298.087 69.96C299.101 68.28 299.608 66.3733 299.608 64.24C299.608 62.0533 299.101 60.1333 298.087 58.48C297.074 56.8267 295.674 55.5333 293.888 54.6C292.101 53.64 290.074 53.16 287.807 53.16C285.514 53.16 283.474 53.64 281.688 54.6C279.927 55.5333 278.527 56.84 277.487 58.52C276.474 60.1733 275.967 62.08 275.967 64.24C275.967 66.3733 276.474 68.28 277.487 69.96C278.527 71.6133 279.927 72.92 281.688 73.88ZM290.608 69.48C289.781 69.96 288.848 70.2 287.807 70.2C286.767 70.2 285.834 69.96 285.008 69.48C284.181 69 283.514 68.32 283.008 67.44C282.527 66.5333 282.288 65.4667 282.288 64.24C282.288 62.9867 282.527 61.92 283.008 61.04C283.514 60.16 284.181 59.48 285.008 59C285.834 58.52 286.767 58.28 287.807 58.28C288.848 58.28 289.781 58.52 290.608 59C291.434 59.48 292.087 60.16 292.568 61.04C293.048 61.92 293.288 62.9867 293.288 64.24C293.288 65.4667 293.048 66.5333 292.568 67.44C292.087 68.32 291.434 69 290.608 69.48ZM308.673 64.1449L300.394 75H307.194L312.082 68.4085L316.794 75H323.874L315.549 64.0039L323.554 53.48H316.914L312.239 59.7648L307.674 53.48H300.674L308.673 64.1449ZM59.12 101.28V124H65.6V101.28H74.56V96H50.16V101.28H59.12ZM95.2466 103.2C93.9132 102.507 92.3932 102.16 90.6866 102.16C88.8466 102.16 87.2066 102.547 85.7666 103.32C85.0422 103.709 84.4022 104.182 83.8466 104.74V94.32H77.6066V124H83.8466V113.36C83.8466 112.027 84.0599 110.933 84.4866 110.08C84.9399 109.227 85.5532 108.6 86.3266 108.2C87.1266 107.773 88.0199 107.56 89.0066 107.56C90.3932 107.56 91.4599 107.973 92.2066 108.8C92.9799 109.627 93.3666 110.907 93.3666 112.64V124H99.6066V111.68C99.6066 109.493 99.2199 107.707 98.4466 106.32C97.6732 104.907 96.6066 103.867 95.2466 103.2ZM109.619 122.88C111.486 123.84 113.646 124.32 116.099 124.32C118.046 124.32 119.766 124.027 121.259 123.44C122.752 122.827 123.992 121.96 124.979 120.84L121.659 117.24C120.939 117.933 120.139 118.453 119.259 118.8C118.406 119.147 117.406 119.32 116.259 119.32C114.979 119.32 113.859 119.093 112.899 118.64C111.966 118.16 111.232 117.48 110.699 116.6C110.423 116.106 110.222 115.573 110.097 115H126.379C126.406 114.733 126.432 114.453 126.459 114.16C126.486 113.84 126.499 113.56 126.499 113.32C126.499 111 126.006 109.013 125.019 107.36C124.032 105.68 122.686 104.4 120.979 103.52C119.299 102.613 117.406 102.16 115.299 102.16C113.112 102.16 111.152 102.64 109.419 103.6C107.686 104.533 106.312 105.84 105.299 107.52C104.312 109.173 103.819 111.08 103.819 113.24C103.819 115.373 104.326 117.28 105.339 118.96C106.352 120.613 107.779 121.92 109.619 122.88ZM110.025 111.36C110.128 110.693 110.327 110.093 110.619 109.56C111.072 108.707 111.699 108.053 112.499 107.6C113.326 107.12 114.272 106.88 115.339 106.88C116.406 106.88 117.339 107.12 118.139 107.6C118.939 108.053 119.566 108.693 120.019 109.52C120.32 110.069 120.521 110.682 120.622 111.36H110.025ZM162.733 103.2C161.427 102.507 159.92 102.16 158.213 102.16C156.16 102.16 154.333 102.653 152.733 103.64C151.837 104.202 151.079 104.877 150.46 105.664C149.956 104.857 149.314 104.196 148.533 103.68C147.067 102.667 145.347 102.16 143.373 102.16C141.613 102.16 140.04 102.547 138.653 103.32C137.872 103.749 137.192 104.297 136.613 104.963V102.48H130.653V124H136.893V113.2C136.893 111.92 137.093 110.867 137.493 110.04C137.893 109.213 138.453 108.6 139.173 108.2C139.893 107.773 140.707 107.56 141.613 107.56C142.92 107.56 143.92 107.973 144.613 108.8C145.333 109.627 145.693 110.907 145.693 112.64V124H151.933V113.2C151.933 111.92 152.133 110.867 152.533 110.04C152.933 109.213 153.493 108.6 154.213 108.2C154.933 107.773 155.747 107.56 156.653 107.56C157.96 107.56 158.973 107.973 159.693 108.8C160.413 109.627 160.773 110.907 160.773 112.64V124H167.013V111.68C167.013 109.493 166.627 107.707 165.853 106.32C165.107 104.907 164.067 103.867 162.733 103.2ZM176.963 122.88C178.829 123.84 180.989 124.32 183.443 124.32C185.389 124.32 187.109 124.027 188.603 123.44C190.096 122.827 191.336 121.96 192.323 120.84L189.003 117.24C188.283 117.933 187.483 118.453 186.603 118.8C185.749 119.147 184.749 119.32 183.603 119.32C182.323 119.32 181.203 119.093 180.243 118.64C179.309 118.16 178.576 117.48 178.043 116.6C177.767 116.106 177.566 115.573 177.44 115H193.723C193.735 114.881 193.747 114.758 193.759 114.634C193.773 114.48 193.788 114.322 193.803 114.16C193.829 113.84 193.843 113.56 193.843 113.32C193.843 111 193.349 109.013 192.363 107.36C191.376 105.68 190.029 104.4 188.323 103.52C186.643 102.613 184.749 102.16 182.643 102.16C180.456 102.16 178.496 102.64 176.763 103.6C175.029 104.533 173.656 105.84 172.643 107.52C171.656 109.173 171.163 111.08 171.163 113.24C171.163 115.373 171.669 117.28 172.683 118.96C173.696 120.613 175.123 121.92 176.963 122.88ZM177.368 111.36C177.472 110.693 177.67 110.093 177.963 109.56C178.416 108.707 179.043 108.053 179.843 107.6C180.669 107.12 181.616 106.88 182.683 106.88C183.749 106.88 184.683 107.12 185.483 107.6C186.283 108.053 186.909 108.693 187.363 109.52C187.664 110.069 187.865 110.682 187.966 111.36H177.368Z" fill="url(#paint0_linear_27_1470)"/>
</g>
<defs>
<linearGradient id="paint0_linear_27_1470" x1="0" y1="-0.0585938" x2="396.746" y2="17.6148" gradientUnits="userSpaceOnUse">
<stop stop-color="#FF8BEC"/>
<stop offset="1" stop-color="#FFA8A8"/>
</linearGradient>
<clipPath id="clip0_27_1470">
<rect width="380" height="166.5" fill="white"/>
</clipPath>
</defs>
</svg>
