<svg width="380" height="167" viewBox="0 0 380 167" fill="none" xmlns="http://www.w3.org/2000/svg">
<g clip-path="url(#clip0_27_1450)">
<path fill-rule="evenodd" clip-rule="evenodd" d="M385 -0.0585938H0V168.941H385V-0.0585938ZM52.679 46V74H58.759V57.5563L66.959 71.04H69.879L78.123 57.1943L78.159 74H84.239L84.159 46H78.839L68.527 63.3861L58.039 46H52.679ZM94.5621 72.88C96.3488 73.84 98.3888 74.32 100.682 74.32C102.949 74.32 104.975 73.84 106.762 72.88C108.549 71.92 109.949 70.6133 110.962 68.96C111.975 67.28 112.482 65.3733 112.482 63.24C112.482 61.0533 111.975 59.1333 110.962 57.48C109.949 55.8267 108.549 54.5333 106.762 53.6C104.975 52.64 102.949 52.16 100.682 52.16C98.3888 52.16 96.3488 52.64 94.5621 53.6C92.8021 54.5333 91.4021 55.84 90.3621 57.52C89.3488 59.1733 88.8421 61.08 88.8421 63.24C88.8421 65.3733 89.3488 67.28 90.3621 68.96C91.4021 70.6133 92.8021 71.92 94.5621 72.88ZM103.482 68.48C102.655 68.96 101.722 69.2 100.682 69.2C99.6421 69.2 98.7088 68.96 97.8821 68.48C97.0554 68 96.3888 67.32 95.8821 66.44C95.4021 65.5333 95.1621 64.4667 95.1621 63.24C95.1621 61.9867 95.4021 60.92 95.8821 60.04C96.3888 59.16 97.0554 58.48 97.8821 58C98.7088 57.52 99.6421 57.28 100.682 57.28C101.722 57.28 102.655 57.52 103.482 58C104.309 58.48 104.962 59.16 105.442 60.04C105.922 60.92 106.162 61.9867 106.162 63.24C106.162 64.4667 105.922 65.5333 105.442 66.44C104.962 67.32 104.309 68 103.482 68.48ZM134.293 53.2C132.96 52.5067 131.44 52.16 129.733 52.16C127.893 52.16 126.253 52.5467 124.813 53.32C123.964 53.7761 123.23 54.3481 122.613 55.0361V52.48H116.653V74H122.893V63.36C122.893 62.0267 123.106 60.9333 123.533 60.08C123.986 59.2267 124.6 58.6 125.373 58.2C126.173 57.7733 127.066 57.56 128.053 57.56C129.44 57.56 130.506 57.9733 131.253 58.8C132.026 59.6267 132.413 60.9067 132.413 62.64V74H138.653V61.68C138.653 59.4933 138.266 57.7067 137.493 56.32C136.72 54.9067 135.653 53.8667 134.293 53.2ZM148.586 72.88C150.372 73.84 152.412 74.32 154.706 74.32C156.972 74.32 158.999 73.84 160.786 72.88C162.572 71.92 163.972 70.6133 164.986 68.96C165.999 67.28 166.506 65.3733 166.506 63.24C166.506 61.0533 165.999 59.1333 164.986 57.48C163.972 55.8267 162.572 54.5333 160.786 53.6C158.999 52.64 156.972 52.16 154.706 52.16C152.412 52.16 150.372 52.64 148.586 53.6C146.826 54.5333 145.426 55.84 144.386 57.52C143.372 59.1733 142.866 61.08 142.866 63.24C142.866 65.3733 143.372 67.28 144.386 68.96C145.426 70.6133 146.826 71.92 148.586 72.88ZM157.506 68.48C156.679 68.96 155.746 69.2 154.706 69.2C153.666 69.2 152.732 68.96 151.906 68.48C151.079 68 150.412 67.32 149.906 66.44C149.426 65.5333 149.186 64.4667 149.186 63.24C149.186 61.9867 149.426 60.92 149.906 60.04C150.412 59.16 151.079 58.48 151.906 58C152.732 57.52 153.666 57.28 154.706 57.28C155.746 57.28 156.679 57.52 157.506 58C158.332 58.48 158.986 59.16 159.466 60.04C159.946 60.92 160.186 61.9867 160.186 63.24C160.186 64.4667 159.946 65.5333 159.466 66.44C158.986 67.32 158.332 68 157.506 68.48ZM189.845 73.44C191.711 74.1333 193.751 74.48 195.965 74.48C197.965 74.48 199.965 74.1733 201.965 73.56C203.991 72.9467 205.765 72.0667 207.285 70.92V59.56H201.365V67.7847C200.93 68.0134 200.49 68.2051 200.045 68.36C198.845 68.76 197.605 68.96 196.325 68.96C194.991 68.96 193.765 68.7467 192.645 68.32C191.551 67.8933 190.591 67.28 189.765 66.48C188.965 65.6533 188.338 64.6933 187.885 63.6C187.458 62.5067 187.245 61.3067 187.245 60C187.245 58.6667 187.458 57.4533 187.885 56.36C188.338 55.2667 188.965 54.32 189.765 53.52C190.591 52.72 191.565 52.1067 192.685 51.68C193.805 51.2533 195.045 51.04 196.405 51.04C197.818 51.04 199.125 51.3067 200.325 51.84C201.525 52.3467 202.631 53.1333 203.645 54.2L207.805 50.36C206.445 48.7867 204.765 47.5867 202.765 46.76C200.791 45.9333 198.565 45.52 196.085 45.52C193.845 45.52 191.791 45.88 189.925 46.6C188.058 47.2933 186.431 48.2933 185.045 49.6C183.658 50.9067 182.578 52.44 181.805 54.2C181.058 55.96 180.685 57.8933 180.685 60C180.685 62.1067 181.058 64.04 181.805 65.8C182.578 67.56 183.645 69.0933 185.005 70.4C186.391 71.7067 188.005 72.72 189.845 73.44ZM210.144 51.28H219.104V74H225.584V51.28H234.544V46H210.144V51.28ZM244.471 66.9319V74H238.031V46H244.471V59.0663L256.871 46H264.071L252.478 58.475L264.751 74H257.191L248.223 63.0152L244.471 66.9319ZM58.479 100.28V123H64.959V100.28H73.919V95H49.519V100.28H58.479ZM94.6055 102.2C93.2722 101.507 91.7522 101.16 90.0455 101.16C88.2055 101.16 86.5655 101.547 85.1255 102.32C84.4012 102.709 83.7612 103.182 83.2055 103.74V93.32H76.9655V123H83.2055V112.36C83.2055 111.027 83.4189 109.933 83.8455 109.08C84.2989 108.227 84.9122 107.6 85.6855 107.2C86.4855 106.773 87.3789 106.56 88.3655 106.56C89.7522 106.56 90.8189 106.973 91.5655 107.8C92.3389 108.627 92.7255 109.907 92.7255 111.64V123H98.9655V110.68C98.9655 108.493 98.5789 106.707 97.8055 105.32C97.0322 103.907 95.9655 102.867 94.6055 102.2ZM108.978 121.88C110.845 122.84 113.005 123.32 115.458 123.32C117.405 123.32 119.125 123.027 120.618 122.44C122.111 121.827 123.351 120.96 124.338 119.84L121.018 116.24C120.298 116.933 119.498 117.453 118.618 117.8C117.765 118.147 116.765 118.32 115.618 118.32C114.338 118.32 113.218 118.093 112.258 117.64C111.325 117.16 110.591 116.48 110.058 115.6C109.782 115.106 109.581 114.573 109.456 114H125.738C125.765 113.733 125.791 113.453 125.818 113.16C125.845 112.84 125.858 112.56 125.858 112.32C125.858 110 125.365 108.013 124.378 106.36C123.391 104.68 122.045 103.4 120.338 102.52C118.658 101.613 116.765 101.16 114.658 101.16C112.471 101.16 110.511 101.64 108.778 102.6C107.045 103.533 105.671 104.84 104.658 106.52C103.671 108.173 103.178 110.08 103.178 112.24C103.178 114.373 103.685 116.28 104.698 117.96C105.711 119.613 107.138 120.92 108.978 121.88ZM109.384 110.36C109.487 109.693 109.686 109.093 109.978 108.56C110.431 107.707 111.058 107.053 111.858 106.6C112.685 106.12 113.631 105.88 114.698 105.88C115.765 105.88 116.698 106.12 117.498 106.6C118.298 107.053 118.925 107.693 119.378 108.52C119.679 109.069 119.88 109.682 119.981 110.36H109.384ZM162.092 102.2C160.786 101.507 159.279 101.16 157.572 101.16C155.519 101.16 153.692 101.653 152.092 102.64C151.196 103.202 150.438 103.877 149.819 104.664C149.315 103.857 148.673 103.196 147.892 102.68C146.426 101.667 144.706 101.16 142.732 101.16C140.972 101.16 139.399 101.547 138.012 102.32C137.231 102.749 136.551 103.297 135.972 103.963V101.48H130.012V123H136.252V112.2C136.252 110.92 136.452 109.867 136.852 109.04C137.252 108.213 137.812 107.6 138.532 107.2C139.252 106.773 140.066 106.56 140.972 106.56C142.279 106.56 143.279 106.973 143.972 107.8C144.692 108.627 145.052 109.907 145.052 111.64V123H151.292V112.2C151.292 110.92 151.492 109.867 151.892 109.04C152.292 108.213 152.852 107.6 153.572 107.2C154.292 106.773 155.106 106.56 156.012 106.56C157.319 106.56 158.332 106.973 159.052 107.8C159.772 108.627 160.132 109.907 160.132 111.64V123H166.372V110.68C166.372 108.493 165.986 106.707 165.212 105.32C164.466 103.907 163.426 102.867 162.092 102.2ZM176.322 121.88C178.188 122.84 180.348 123.32 182.802 123.32C184.748 123.32 186.468 123.027 187.962 122.44C189.455 121.827 190.695 120.96 191.682 119.84L188.362 116.24C187.642 116.933 186.842 117.453 185.962 117.8C185.108 118.147 184.108 118.32 182.962 118.32C181.682 118.32 180.562 118.093 179.602 117.64C178.668 117.16 177.935 116.48 177.402 115.6C177.126 115.106 176.925 114.573 176.799 114H193.082C193.108 113.733 193.135 113.453 193.162 113.16C193.188 112.84 193.202 112.56 193.202 112.32C193.202 110 192.708 108.013 191.722 106.36C190.735 104.68 189.388 103.4 187.682 102.52C186.002 101.613 184.108 101.16 182.002 101.16C179.815 101.16 177.855 101.64 176.122 102.6C174.388 103.533 173.015 104.84 172.002 106.52C171.015 108.173 170.522 110.08 170.522 112.24C170.522 114.373 171.028 116.28 172.042 117.96C173.055 119.613 174.482 120.92 176.322 121.88ZM176.727 110.36C176.831 109.693 177.029 109.093 177.322 108.56C177.775 107.707 178.402 107.053 179.202 106.6C180.028 106.12 180.975 105.88 182.042 105.88C183.108 105.88 184.042 106.12 184.842 106.6C185.642 107.053 186.268 107.693 186.722 108.52C187.023 109.069 187.224 109.682 187.325 110.36H176.727Z" fill="url(#paint0_linear_27_1450)"/>
</g>
<defs>
<linearGradient id="paint0_linear_27_1450" x1="-3.14839e-06" y1="0.00105484" x2="391.803" y2="15.7599" gradientUnits="userSpaceOnUse">
<stop stop-color="#A8CBFF"/>
<stop offset="1" stop-color="#FF8BEC"/>
</linearGradient>
<clipPath id="clip0_27_1450">
<rect width="380" height="166.5" fill="white"/>
</clipPath>
</defs>
</svg>
