<svg width="380" height="166" viewBox="0 0 380 166" fill="none" xmlns="http://www.w3.org/2000/svg">
<g clip-path="url(#clip0_27_1478)">
<path fill-rule="evenodd" clip-rule="evenodd" d="M390.5 -1.55859H0.5V167.441H390.5V-1.55859ZM57.06 72.46C58.6867 73.3667 60.5133 73.82 62.54 73.82C64.3533 73.82 65.94 73.42 67.3 72.62C67.9247 72.2525 68.4847 71.7978 68.98 71.2559V81.26H75.22V51.98H69.26V54.4649C68.7218 53.8156 68.0952 53.2807 67.38 52.86C66.0467 52.06 64.4333 51.66 62.54 51.66C60.5133 51.66 58.6867 52.1267 57.06 53.06C55.4333 53.9667 54.14 55.2467 53.18 56.9C52.2467 58.5533 51.78 60.5 51.78 62.74C51.78 65.0067 52.2467 66.9667 53.18 68.62C54.14 70.2733 55.4333 71.5533 57.06 72.46ZM66.38 67.98C65.5533 68.46 64.6333 68.7 63.62 68.7C62.58 68.7 61.6467 68.46 60.82 67.98C59.9933 67.5 59.3267 66.82 58.82 65.94C58.34 65.0333 58.1 63.9667 58.1 62.74C58.1 61.4867 58.34 60.42 58.82 59.54C59.3267 58.66 59.9933 57.98 60.82 57.5C61.6467 57.02 62.58 56.78 63.62 56.78C64.6333 56.78 65.5533 57.02 66.38 57.5C67.2067 57.98 67.86 58.66 68.34 59.54C68.8467 60.42 69.1 61.4867 69.1 62.74C69.1 63.9667 68.8467 65.0333 68.34 65.94C67.86 66.82 67.2067 67.5 66.38 67.98ZM81.4372 45.5V73.5H95.9172C99.5972 73.5 102.384 72.8333 104.277 71.5C106.171 70.14 107.117 68.26 107.117 65.86C107.117 64.2333 106.731 62.86 105.957 61.74C105.211 60.62 104.157 59.78 102.797 59.22C102.547 59.1122 102.291 59.0143 102.027 58.9263C103.116 58.3541 103.986 57.5853 104.637 56.62C105.357 55.5267 105.717 54.2467 105.717 52.78C105.717 50.5933 104.824 48.8333 103.037 47.5C101.277 46.1667 98.6372 45.5 95.1172 45.5H81.4372ZM95.4372 68.62H87.8772V61.7H95.4372C97.1172 61.7 98.3839 61.9933 99.2372 62.58C100.117 63.14 100.557 64.0067 100.557 65.18C100.557 66.38 100.117 67.26 99.2372 67.82C98.3839 68.3533 97.1172 68.62 95.4372 68.62ZM87.8772 56.98V50.38H94.3172C95.8905 50.38 97.0905 50.66 97.9172 51.22C98.7705 51.7533 99.1972 52.5667 99.1972 53.66C99.1972 54.78 98.7705 55.62 97.9172 56.18C97.0905 56.7133 95.8905 56.98 94.3172 56.98H87.8772ZM111.903 47.98C112.623 48.6467 113.556 48.98 114.703 48.98C115.876 48.98 116.81 48.6467 117.503 47.98C118.223 47.2867 118.583 46.42 118.583 45.38C118.583 44.3933 118.223 43.5933 117.503 42.98C116.783 42.34 115.85 42.02 114.703 42.02C113.556 42.02 112.623 42.3533 111.903 43.02C111.183 43.6867 110.823 44.5133 110.823 45.5C110.823 46.4867 111.183 47.3133 111.903 47.98ZM126.494 71.9C127.908 73.18 129.881 73.82 132.414 73.82C133.374 73.82 134.294 73.7133 135.174 73.5C136.081 73.26 136.854 72.9133 137.494 72.46L135.814 68.06C135.121 68.5933 134.281 68.86 133.294 68.86C132.468 68.86 131.814 68.62 131.334 68.14C130.854 67.6333 130.614 66.9267 130.614 66.02V57.26H135.974V52.46H130.614V47.22H124.374V52.46H121.054V57.26H124.374V66.1C124.374 68.66 125.081 70.5933 126.494 71.9ZM111.583 51.98V73.5H117.823V51.98H111.583ZM147.237 50.78V73.5H153.717V50.78H162.677V45.5H138.277V50.78H147.237ZM167.656 72.38C169.443 73.34 171.483 73.82 173.776 73.82C176.043 73.82 178.07 73.34 179.856 72.38C181.643 71.42 183.043 70.1133 184.056 68.46C185.07 66.78 185.576 64.8733 185.576 62.74C185.576 60.5533 185.07 58.6333 184.056 56.98C183.043 55.3267 181.643 54.0333 179.856 53.1C178.07 52.14 176.043 51.66 173.776 51.66C171.483 51.66 169.443 52.14 167.656 53.1C165.896 54.0333 164.496 55.34 163.456 57.02C162.443 58.6733 161.936 60.58 161.936 62.74C161.936 64.8733 162.443 66.78 163.456 68.46C164.496 70.1133 165.896 71.42 167.656 72.38ZM176.576 67.98C175.75 68.46 174.816 68.7 173.776 68.7C172.736 68.7 171.803 68.46 170.976 67.98C170.15 67.5 169.483 66.82 168.976 65.94C168.496 65.0333 168.256 63.9667 168.256 62.74C168.256 61.4867 168.496 60.42 168.976 59.54C169.483 58.66 170.15 57.98 170.976 57.5C171.803 57.02 172.736 56.78 173.776 56.78C174.816 56.78 175.75 57.02 176.576 57.5C177.403 57.98 178.056 58.66 178.536 59.54C179.016 60.42 179.256 61.4867 179.256 62.74C179.256 63.9667 179.016 65.0333 178.536 65.94C178.056 66.82 177.403 67.5 176.576 67.98ZM195.707 51.98H189.747V73.5H195.987V63.34C195.987 61.2867 196.507 59.78 197.547 58.82C198.614 57.8333 200.001 57.34 201.707 57.34C201.947 57.34 202.174 57.3533 202.387 57.38C202.601 57.38 202.841 57.3933 203.107 57.42V51.66C201.081 51.66 199.361 52.06 197.947 52.86C197.042 53.3554 196.295 54.0039 195.707 54.8056V51.98ZM212.817 51.98H206.857V73.5H213.097V63.34C213.097 61.2867 213.617 59.78 214.657 58.82C215.723 57.8333 217.11 57.34 218.817 57.34C219.057 57.34 219.283 57.3533 219.497 57.38C219.71 57.38 219.95 57.3933 220.217 57.42V51.66C218.19 51.66 216.47 52.06 215.057 52.86C214.151 53.3554 213.405 54.0039 212.817 54.8056V51.98ZM227.971 72.38C229.837 73.34 231.997 73.82 234.451 73.82C236.397 73.82 238.117 73.5267 239.611 72.94C241.104 72.3267 242.344 71.46 243.331 70.34L240.011 66.74C239.291 67.4333 238.491 67.9533 237.611 68.3C236.757 68.6467 235.757 68.82 234.611 68.82C233.331 68.82 232.211 68.5933 231.251 68.14C230.317 67.66 229.584 66.98 229.051 66.1C228.775 65.6062 228.574 65.0729 228.448 64.5H244.731C244.757 64.2333 244.784 63.9533 244.811 63.66C244.837 63.34 244.851 63.06 244.851 62.82C244.851 60.5 244.357 58.5133 243.371 56.86C242.384 55.18 241.037 53.9 239.331 53.02C237.651 52.1133 235.757 51.66 233.651 51.66C231.464 51.66 229.504 52.14 227.771 53.1C226.037 54.0333 224.664 55.34 223.651 57.02C222.664 58.6733 222.171 60.58 222.171 62.74C222.171 64.8733 222.677 66.78 223.691 68.46C224.704 70.1133 226.131 71.42 227.971 72.38ZM228.376 60.86C228.48 60.1934 228.678 59.5934 228.971 59.06C229.424 58.2067 230.051 57.5533 230.851 57.1C231.677 56.62 232.624 56.38 233.691 56.38C234.757 56.38 235.691 56.62 236.491 57.1C237.291 57.5533 237.917 58.1933 238.371 59.02C238.672 59.5687 238.873 60.182 238.974 60.86H228.376ZM266.645 52.7C265.312 52.0067 263.792 51.66 262.085 51.66C260.245 51.66 258.605 52.0467 257.165 52.82C256.316 53.2761 255.582 53.8481 254.965 54.5361V51.98H249.005V73.5H255.245V62.86C255.245 61.5267 255.458 60.4333 255.885 59.58C256.338 58.7267 256.952 58.1 257.725 57.7C258.525 57.2733 259.418 57.06 260.405 57.06C261.792 57.06 262.858 57.4733 263.605 58.3C264.378 59.1267 264.765 60.4067 264.765 62.14V73.5H271.005V61.18C271.005 58.9933 270.618 57.2067 269.845 55.82C269.072 54.4067 268.005 53.3667 266.645 52.7ZM279.541 71.9C280.955 73.18 282.928 73.82 285.461 73.82C286.421 73.82 287.341 73.7133 288.221 73.5C289.128 73.26 289.901 72.9133 290.541 72.46L288.861 68.06C288.168 68.5933 287.328 68.86 286.341 68.86C285.515 68.86 284.861 68.62 284.381 68.14C283.901 67.6333 283.661 66.9267 283.661 66.02V57.26H289.021V52.46H283.661V47.22H277.421V52.46H274.101V57.26H277.421V66.1C277.421 68.66 278.128 70.5933 279.541 71.9ZM60.3 112.3V122.5H53.82V94.5H74.98V99.7H60.3V107.1H73.26V112.3H60.3ZM78.9269 92.82V122.5H85.1669V92.82H78.9269ZM95.2381 121.78C96.6515 122.473 98.2515 122.82 100.038 122.82C101.691 122.82 103.211 122.447 104.598 121.7C105.423 121.249 106.129 120.675 106.718 119.979V122.5H112.638V100.98H106.398V111.62C106.398 112.927 106.185 114.02 105.758 114.9C105.331 115.753 104.745 116.393 103.998 116.82C103.251 117.22 102.398 117.42 101.438 117.42C100.051 117.42 98.9715 117.007 98.1981 116.18C97.4515 115.327 97.0781 114.007 97.0781 112.22V100.98H90.8381V113.14C90.8381 115.353 91.2248 117.18 91.9981 118.62C92.7715 120.033 93.8515 121.087 95.2381 121.78ZM122.619 121.38C124.486 122.34 126.646 122.82 129.099 122.82C131.046 122.82 132.766 122.527 134.259 121.94C135.752 121.327 136.992 120.46 137.979 119.34L134.659 115.74C133.939 116.433 133.139 116.953 132.259 117.3C131.406 117.647 130.406 117.82 129.259 117.82C127.979 117.82 126.859 117.593 125.899 117.14C124.966 116.66 124.232 115.98 123.699 115.1C123.423 114.606 123.222 114.073 123.097 113.5H139.379C139.406 113.233 139.432 112.953 139.459 112.66C139.486 112.34 139.499 112.06 139.499 111.82C139.499 109.5 139.006 107.513 138.019 105.86C137.032 104.18 135.686 102.9 133.979 102.02C132.299 101.113 130.406 100.66 128.299 100.66C126.112 100.66 124.152 101.14 122.419 102.1C120.686 103.033 119.312 104.34 118.299 106.02C117.312 107.673 116.819 109.58 116.819 111.74C116.819 113.873 117.326 115.78 118.339 117.46C119.352 119.113 120.779 120.42 122.619 121.38ZM123.025 109.86C123.128 109.193 123.327 108.593 123.619 108.06C124.072 107.207 124.699 106.553 125.499 106.1C126.326 105.62 127.272 105.38 128.339 105.38C129.406 105.38 130.339 105.62 131.139 106.1C131.939 106.553 132.566 107.193 133.019 108.02C133.32 108.569 133.521 109.182 133.622 109.86H123.025ZM161.293 101.7C159.96 101.007 158.44 100.66 156.733 100.66C154.893 100.66 153.253 101.047 151.813 101.82C150.964 102.276 150.231 102.848 149.613 103.536V100.98H143.653V122.5H149.893V111.86C149.893 110.527 150.107 109.433 150.533 108.58C150.987 107.727 151.6 107.1 152.373 106.7C153.173 106.273 154.067 106.06 155.053 106.06C156.44 106.06 157.507 106.473 158.253 107.3C159.027 108.127 159.413 109.407 159.413 111.14V122.5H165.653V110.18C165.653 107.993 165.267 106.207 164.493 104.82C163.72 103.407 162.653 102.367 161.293 101.7ZM174.19 120.9C175.603 122.18 177.576 122.82 180.11 122.82C181.07 122.82 181.99 122.713 182.87 122.5C183.776 122.26 184.55 121.913 185.19 121.46L183.51 117.06C182.816 117.593 181.976 117.86 180.99 117.86C180.163 117.86 179.51 117.62 179.03 117.14C178.55 116.633 178.31 115.927 178.31 115.02V106.26H183.67V101.46H178.31V96.22H172.07V101.46H168.75V106.26H172.07V115.1C172.07 117.66 172.776 119.593 174.19 120.9ZM197.301 99.78H206.261V122.5H212.741V99.78H221.701V94.5H197.301V99.78ZM242.387 101.7C241.054 101.007 239.534 100.66 237.827 100.66C235.987 100.66 234.347 101.047 232.907 101.82C232.183 102.209 231.543 102.682 230.987 103.24V92.82H224.747V122.5H230.987V111.86C230.987 110.527 231.201 109.433 231.627 108.58C232.081 107.727 232.694 107.1 233.467 106.7C234.267 106.273 235.161 106.06 236.147 106.06C237.534 106.06 238.601 106.473 239.347 107.3C240.121 108.127 240.507 109.407 240.507 111.14V122.5H246.747V110.18C246.747 107.993 246.361 106.207 245.587 104.82C244.814 103.407 243.747 102.367 242.387 101.7ZM256.76 121.38C258.626 122.34 260.786 122.82 263.24 122.82C265.186 122.82 266.906 122.527 268.4 121.94C269.893 121.327 271.133 120.46 272.12 119.34L268.8 115.74C268.08 116.433 267.28 116.953 266.4 117.3C265.546 117.647 264.546 117.82 263.4 117.82C262.12 117.82 261 117.593 260.04 117.14C259.106 116.66 258.373 115.98 257.84 115.1C257.564 114.606 257.363 114.073 257.237 113.5H273.52C273.546 113.233 273.573 112.953 273.6 112.66C273.626 112.34 273.64 112.06 273.64 111.82C273.64 109.5 273.146 107.513 272.16 105.86C271.173 104.18 269.826 102.9 268.12 102.02C266.44 101.113 264.546 100.66 262.44 100.66C260.253 100.66 258.293 101.14 256.56 102.1C254.826 103.033 253.453 104.34 252.44 106.02C251.453 107.673 250.96 109.58 250.96 111.74C250.96 113.873 251.466 115.78 252.48 117.46C253.493 119.113 254.92 120.42 256.76 121.38ZM257.165 109.86C257.269 109.193 257.467 108.593 257.76 108.06C258.213 107.207 258.84 106.553 259.64 106.1C260.466 105.62 261.413 105.38 262.48 105.38C263.546 105.38 264.48 105.62 265.28 106.1C266.08 106.553 266.706 107.193 267.16 108.02C267.461 108.569 267.662 109.182 267.763 109.86H257.165ZM309.874 101.7C308.567 101.007 307.061 100.66 305.354 100.66C303.301 100.66 301.474 101.153 299.874 102.14C298.978 102.702 298.22 103.377 297.6 104.164C297.097 103.357 296.455 102.696 295.674 102.18C294.207 101.167 292.487 100.66 290.514 100.66C288.754 100.66 287.181 101.047 285.794 101.82C285.013 102.249 284.333 102.797 283.754 103.463V100.98H277.794V122.5H284.034V111.7C284.034 110.42 284.234 109.367 284.634 108.54C285.034 107.713 285.594 107.1 286.314 106.7C287.034 106.273 287.847 106.06 288.754 106.06C290.061 106.06 291.061 106.473 291.754 107.3C292.474 108.127 292.834 109.407 292.834 111.14V122.5H299.074V111.7C299.074 110.42 299.274 109.367 299.674 108.54C300.074 107.713 300.634 107.1 301.354 106.7C302.074 106.273 302.887 106.06 303.794 106.06C305.101 106.06 306.114 106.473 306.834 107.3C307.554 108.127 307.914 109.407 307.914 111.14V122.5H314.154V110.18C314.154 107.993 313.767 106.207 312.994 104.82C312.247 103.407 311.207 102.367 309.874 101.7ZM324.103 121.38C325.97 122.34 328.13 122.82 330.583 122.82C332.53 122.82 334.25 122.527 335.743 121.94C337.237 121.327 338.477 120.46 339.463 119.34L336.143 115.74C335.423 116.433 334.623 116.953 333.743 117.3C332.89 117.647 331.89 117.82 330.743 117.82C329.463 117.82 328.343 117.593 327.383 117.14C326.45 116.66 325.717 115.98 325.183 115.1C324.908 114.606 324.707 114.073 324.581 113.5H340.863C340.89 113.233 340.917 112.953 340.943 112.66C340.97 112.34 340.983 112.06 340.983 111.82C340.983 109.5 340.49 107.513 339.503 105.86C338.517 104.18 337.17 102.9 335.463 102.02C333.783 101.113 331.89 100.66 329.783 100.66C327.597 100.66 325.637 101.14 323.903 102.1C322.17 103.033 320.797 104.34 319.783 106.02C318.797 107.673 318.303 109.58 318.303 111.74C318.303 113.873 318.81 115.78 319.823 117.46C320.837 119.113 322.263 120.42 324.103 121.38ZM324.509 109.86C324.613 109.193 324.811 108.593 325.103 108.06C325.557 107.207 326.183 106.553 326.983 106.1C327.81 105.62 328.757 105.38 329.823 105.38C330.89 105.38 331.823 105.62 332.623 106.1C333.423 106.553 334.05 107.193 334.503 108.02C334.804 108.569 335.005 109.182 335.107 109.86H324.509Z" fill="url(#paint0_linear_27_1478)"/>
</g>
<defs>
<linearGradient id="paint0_linear_27_1478" x1="0.5" y1="-1.55859" x2="397.246" y2="16.1148" gradientUnits="userSpaceOnUse">
<stop stop-color="#FFE1A8"/>
<stop offset="1" stop-color="#AFFFA8"/>
</linearGradient>
<clipPath id="clip0_27_1478">
<rect width="390" height="169" fill="white" transform="translate(0.5 -1.5)"/>
</clipPath>
</defs>
</svg>
