<svg width="22" height="22" viewBox="0 0 22 22" fill="none" xmlns="http://www.w3.org/2000/svg">
<path d="M8.93179 1.375C7.84146 1.375 7.85758 1.42334 8.20132 2.79296L10.4357 9.62495H4.24822L2.57245 7.17575C2.37909 6.89108 2.40595 6.87497 2.0998 6.87497H1.79902C1.21357 6.87497 1.4123 7.47653 1.4123 7.47653L1.79902 10.9999L1.4123 14.5234C1.4123 14.5234 1.21894 15.1249 1.75605 15.1249H2.0998C2.38983 15.1249 2.37909 15.1142 2.57245 14.8241L4.24822 12.3749H10.4357L8.20132 19.164C7.84146 20.6034 7.83609 20.6249 8.93179 20.6249C9.52798 20.6249 9.52798 20.6088 9.92007 19.9374L14.9903 12.3749H19.2442C20.0069 12.3749 20.6192 11.7626 20.6192 10.9999C20.6192 10.2373 20.0069 9.62495 19.2442 9.62495H14.9903L9.92007 2.0625C9.55483 1.43408 9.53335 1.375 9.01773 1.375H8.93179Z" fill="white"/>
</svg>
