<svg width="16" height="16" viewBox="0 0 16 16" fill="none" xmlns="http://www.w3.org/2000/svg">
<path d="M4.5 8C4.50602 8.43083 4.65061 8.7603 4.98193 9.11511L9.39156 13.6325C9.63252 13.8859 9.90361 14 10.247 14C10.9337 14 11.5 13.4108 11.5 12.7012C11.5 12.34 11.3615 12.0042 11.0904 11.7318L7.3976 8.01267L11.0904 4.27452C11.3554 4.00212 11.5 3.66629 11.5 3.29892C11.5 2.5892 10.9337 2 10.247 2C9.90963 2 9.63856 2.12034 9.39156 2.36754L4.98193 6.8912C4.64459 7.24606 4.5 7.58189 4.5 8Z" fill="currentColor"/>
</svg>
