<svg width="24" height="24" viewBox="0 0 24 24" fill="none" xmlns="http://www.w3.org/2000/svg">
<path d="M16.5 12C16.491 11.3537 16.2741 10.8595 15.7771 10.3273L9.16265 3.55121C8.80122 3.17108 8.39458 3 7.87953 3C6.8494 3 6 3.88385 6 4.94827C6 5.48996 6.20782 5.99366 6.61446 6.40234L12.1536 11.981L6.61446 17.5882C6.21688 17.9968 6 18.5006 6 19.0516C6 20.1162 6.8494 21 7.87953 21C8.38555 21 8.79216 20.8195 9.16265 20.4487L15.7771 13.6632C16.2831 13.1309 16.5 12.6272 16.5 12Z" fill="white"/>
</svg>
