<svg width="22" height="22" viewBox="0 0 22 22" fill="none" xmlns="http://www.w3.org/2000/svg">
<g clip-path="url(#clip0_3_10)">
<path d="M6.5723 18.7L8.07105 14.135H7.38355C6.8923 14.1155 6.41524 13.9648 6.00205 13.6983C5.58887 13.4319 5.25466 13.0596 5.03423 12.6201C4.8138 12.1807 4.71521 11.6902 4.74873 11.1997C4.78225 10.7092 4.94664 10.2366 5.2248 9.83124L9.52855 3.29999H5.87105C5.18912 3.29999 4.53511 3.57089 4.05291 4.05309C3.5707 4.53529 3.2998 5.1893 3.2998 5.87124V16.1287C3.2998 16.8107 3.5707 17.4647 4.05291 17.9469C4.53511 18.4291 5.18912 18.7 5.87105 18.7H6.5723Z" fill="#64F83F"/>
<path d="M16.1287 3.29995H15.2488L13.8738 7.86495H14.6163C15.1233 7.86158 15.6207 8.00353 16.0495 8.27402C16.4784 8.5445 16.8208 8.93219 17.0363 9.3912C17.2372 9.83307 17.3176 10.3203 17.2693 10.8033C17.221 11.2863 17.0457 11.7479 16.7612 12.1412L12.375 18.7H16.17C16.8519 18.7 17.5059 18.4291 17.9881 17.9469C18.4704 17.4646 18.7413 16.8106 18.7413 16.1287V5.8712C18.7413 5.53004 18.6734 5.19228 18.5417 4.87761C18.4099 4.56293 18.2168 4.27762 17.9736 4.03831C17.7305 3.799 17.4421 3.61047 17.1254 3.48371C16.8087 3.35694 16.4699 3.29448 16.1287 3.29995V3.29995Z" fill="#64F83F"/>
<path d="M7.85132 22C7.92746 22.0062 8.00392 21.9931 8.07363 21.9618C8.14333 21.9306 8.20402 21.8822 8.25007 21.8213L15.4688 11.22C15.5937 11.0668 15.6725 10.8812 15.6961 10.6849C15.7198 10.4886 15.6872 10.2896 15.6022 10.1111C15.5173 9.93252 15.3834 9.78174 15.2162 9.67624C15.049 9.57074 14.8553 9.51485 14.6576 9.51504H11.6463L14.3963 0.605045C14.4236 0.530952 14.431 0.451035 14.4179 0.373191C14.4048 0.295346 14.3716 0.222265 14.3216 0.161169C14.2716 0.100073 14.2066 0.0530754 14.1329 0.024818C14.0591 -0.00343928 13.9793 -0.0119782 13.9013 4.48575e-05C13.834 0.000565204 13.7677 0.0170355 13.708 0.048106C13.6482 0.0791765 13.5967 0.123963 13.5576 0.178795L6.57257 10.78C6.44769 10.9333 6.36887 11.1189 6.34525 11.3152C6.32163 11.5115 6.35419 11.7105 6.43914 11.889C6.52409 12.0676 6.65795 12.2183 6.82516 12.3238C6.99238 12.4293 7.1861 12.4852 7.38382 12.485H10.3538L7.42507 21.395C7.40092 21.4634 7.39347 21.5365 7.40337 21.6082C7.41326 21.68 7.4402 21.7484 7.48194 21.8076C7.52367 21.8669 7.57898 21.9153 7.64325 21.9487C7.70751 21.9822 7.77886 21.9998 7.85132 22V22Z" fill="currentColor"/>
<path d="M5.85752 20.8862L6.11877 20.075H5.87127C4.82577 20.0714 3.82413 19.6544 3.08485 18.9152C2.34557 18.1759 1.92864 17.1742 1.92502 16.1287V5.87125C1.92864 4.82575 2.34557 3.82411 3.08485 3.08483C3.82413 2.34555 4.82577 1.92862 5.87127 1.925H10.4363L11.7013 0H5.87127C4.31412 0 2.82074 0.618576 1.71967 1.71965C0.618593 2.82072 1.67734e-05 4.3141 1.67734e-05 5.87125V16.1287C-0.00368142 17.6752 0.604285 19.1603 1.6913 20.2602C2.77832 21.3601 4.25618 21.9855 5.80252 22C5.7153 21.631 5.73437 21.2449 5.85752 20.8862V20.8862Z" fill="currentColor" fill-opacity="0.5"/>
<path d="M16.1287 0H15.9637C16.0668 0.350062 16.0668 0.722438 15.9637 1.0725L15.7162 1.925H16.1699C17.2083 1.93942 18.1994 2.3611 18.9298 3.09923C19.6602 3.83735 20.0714 4.83284 20.0749 5.87125V16.1287C20.0713 17.1742 19.6544 18.1759 18.9151 18.9152C18.1758 19.6544 17.1742 20.0714 16.1287 20.075H11.3987L10.0237 22H16.0737C16.8493 22.0073 17.6187 21.8608 18.3374 21.569C19.0561 21.2772 19.7098 20.8458 20.2609 20.2999C20.8119 19.754 21.2493 19.1043 21.5478 18.3884C21.8463 17.6724 22 16.9044 21.9999 16.1287V5.87125C21.9999 4.3141 21.3814 2.82072 20.2803 1.71965C19.1792 0.618576 17.6858 0 16.1287 0V0Z" fill="currentColor" fill-opacity="0.5"/>
</g>
<defs>
<clipPath id="clip0_3_10">
<rect width="22" height="22" fill="currentColor"/>
</clipPath>
</defs>
</svg>
