<svg width="22" height="22" viewBox="0 0 22 22" fill="none" xmlns="http://www.w3.org/2000/svg">
<g clip-path="url(#clip0_8_33)">
<path fill-rule="evenodd" clip-rule="evenodd" d="M7.06588 11.9272L4.59776 14.0938C4.02305 14.5934 3.96934 15.4581 4.46885 16.0275C4.96837 16.6022 5.83313 16.6559 6.40247 16.1564L9.0147 13.876L7.06588 11.9272ZM9.62516 14.4865V20.6252C9.62516 21.1623 9.94206 21.6511 10.4308 21.8766C10.925 22.0969 11.4997 22.0163 11.9025 21.6564L14.5148 19.3761L12.5682 17.4295L12.3752 17.5958V17.2365L9.62516 14.4865ZM14.2212 10.0079L17.4026 7.21877C17.7034 6.96095 17.8753 6.58497 17.8753 6.18751C17.8753 5.79004 17.7034 5.41406 17.4026 5.15625L11.9025 0.343694C11.6393 0.107363 11.2902 -0.0108026 10.9411 -6.02486e-05C10.7638 0.0106821 10.592 0.0536513 10.4308 0.123476C9.94206 0.349064 9.62516 0.83784 9.62516 1.37495V5.41182L14.2212 10.0079ZM14.4109 6.18751L12.3752 4.40428V7.97073L14.4109 6.18751Z" fill="currentColor"/>
<path d="M2.74998 2.9793L19.6028 19.8322" stroke="CurrentColor" stroke-width="2.75003" stroke-linecap="round"/>
</g>
<defs>
<clipPath id="clip0_8_33">
<rect width="22.0002" height="22.0002" fill="currentColor"/>
</clipPath>
</defs>
</svg>
