<svg width="21" height="22" viewBox="0 0 21 22" fill="none" xmlns="http://www.w3.org/2000/svg">
<path d="M10.263 0C9.874 0 9.50095 0.154545 9.22589 0.429598C8.95084 0.704651 8.79632 1.07768 8.79632 1.46667V8.8C8.79632 9.18898 8.95084 9.56201 9.22589 9.83706C9.50095 10.1121 9.874 10.2667 10.263 10.2667C10.652 10.2667 11.025 10.1121 11.3001 9.83706C11.5751 9.56201 11.7297 9.18898 11.7297 8.8V1.46667C11.7297 1.07768 11.5751 0.704651 11.3001 0.429598C11.025 0.154545 10.652 0 10.263 0ZM5.66533 2.66406C5.47458 2.68906 5.29062 2.75136 5.12392 2.84739C1.11282 5.16872 -0.849527 9.91121 0.348661 14.3888C1.54685 18.8664 5.61456 21.9932 10.2487 22C14.8828 22.0059 18.9602 18.8915 20.1716 14.4174C21.3829 9.94341 19.435 5.19483 15.4307 2.86172C15.0949 2.66577 14.695 2.61123 14.319 2.71007C13.943 2.80891 13.6216 3.05303 13.4255 3.3888C13.3281 3.55523 13.2645 3.73926 13.2383 3.9303C13.2121 4.12134 13.2238 4.31563 13.2728 4.50214C13.3217 4.68865 13.407 4.8637 13.5236 5.01723C13.6403 5.17075 13.786 5.29975 13.9526 5.39687C16.8231 7.0694 18.2097 10.4425 17.3414 13.6497C16.473 16.857 13.5764 19.0715 10.2544 19.0667C6.93236 19.0623 4.04068 16.8395 3.18173 13.6297C2.32279 10.4199 3.71517 7.04948 6.59059 5.38541C6.92686 5.19072 7.17214 4.87049 7.27257 4.49507C7.37301 4.11964 7.32039 3.71972 7.12627 3.38307C6.93137 3.04671 6.61094 2.80149 6.23538 2.7013C6.04964 2.65163 5.85595 2.63898 5.66533 2.66406Z" fill="white"/>
</svg>
