<svg width="22" height="22" viewBox="0 0 22 22" fill="none" xmlns="http://www.w3.org/2000/svg">
<g clip-path="url(#clip0_3_16)">
<path d="M9.62524 1.38586C9.21704 1.38049 8.83032 1.55774 8.56714 1.86926L4.12524 6.87512H2.75024C1.24634 6.87512 0.000244141 8.03528 0.000244141 9.62512V12.3751C0.000244141 13.8737 1.25171 15.1251 2.75024 15.1251H4.12524L8.56714 20.131C8.85718 20.4801 9.2439 20.6305 9.62524 20.6251V1.38586ZM18.509 2.70715C18.2458 2.70178 17.9773 2.78235 17.741 2.93811C17.1125 3.3678 16.946 4.2218 17.3704 4.85022C19.8787 8.57239 19.8787 13.4279 17.3704 17.15C16.946 17.7784 17.1125 18.6324 17.741 19.0621C18.3694 19.4865 19.2234 19.3199 19.6531 18.6915C21.2161 16.3658 22.0002 13.6857 22.0002 11.0001C22.0002 8.31457 21.2161 5.6344 19.6531 3.30871C19.3845 2.91662 18.9495 2.70715 18.509 2.70715V2.70715ZM13.804 5.48401C13.4978 5.47326 13.1809 5.56457 12.9177 5.7633C12.5579 6.03723 12.3752 6.4508 12.3752 6.86975V6.95032C12.3914 7.2135 12.4773 7.46594 12.6492 7.68616C14.1262 9.65198 14.1262 12.3483 12.6492 14.3087C12.4773 14.5343 12.3914 14.7867 12.3752 15.0446V15.1305C12.3752 15.5494 12.5579 15.963 12.9177 16.2369C13.5247 16.6935 14.384 16.5699 14.8406 15.963C15.947 14.4967 16.5002 12.7511 16.5002 11.0001C16.5002 9.24914 15.947 7.50354 14.8406 6.03186C14.5881 5.69348 14.2014 5.50549 13.804 5.48401V5.48401Z" fill="currentColor"/>
</g>
<defs>
<clipPath id="clip0_3_16">
<rect width="22" height="22" fill="currentColor"/>
</clipPath>
</defs>
</svg>
