<svg width="22" height="22" viewBox="0 0 22 22" fill="none" xmlns="http://www.w3.org/2000/svg">
<g clip-path="url(#clip0_3_4)">
<path fill-rule="evenodd" clip-rule="evenodd" d="M22.3987 8.05721L20.2899 10.2975C19.1161 8.91552 17.6822 7.81072 16.0811 7.05453C14.48 6.29835 12.7474 5.90762 10.9952 5.90762C9.24302 5.90762 7.51035 6.29835 5.90926 7.05453C4.30817 7.81072 2.87433 8.91552 1.70047 10.2975L-0.398804 8.05721C1.05295 6.38398 2.81536 5.04852 4.77725 4.13509C6.73913 3.22165 8.85792 2.75006 10.9999 2.75006C13.142 2.75006 15.2608 3.22165 17.2226 4.13509C19.1845 5.04852 20.9469 6.38398 22.3987 8.05721ZM18.5992 12.1442L16.5 14.3744C15.8313 13.5279 14.9962 12.8472 14.0534 12.3802C13.1106 11.9132 12.083 11.6712 11.0428 11.6712C10.0026 11.6712 8.975 11.9132 8.03222 12.3802C7.08944 12.8472 6.25437 13.5279 5.58567 14.3744L3.40091 12.1442C4.34329 10.9999 5.50505 10.0829 6.8083 9.45464C8.11155 8.82636 9.52617 8.50132 10.9573 8.50132C12.3885 8.50132 13.8031 8.82636 15.1064 9.45464C16.4096 10.0829 17.5714 10.9999 18.5138 12.1442H18.5992ZM13.6503 17.3513L14.7142 16.211C13.8511 14.9753 12.439 14.0038 10.9906 13.9991C9.54403 14.0069 8.13603 14.9877 7.286 16.2312L8.34038 17.3513L11.0001 20.1667L12.5484 18.5219L13.6503 17.3513Z" fill="white"/>
</g>
<defs>
<clipPath id="clip0_3_4">
<rect width="22" height="22" fill="white"/>
</clipPath>
</defs>
</svg>
