<svg width="16" height="16" viewBox="0 0 16 16" fill="none" xmlns="http://www.w3.org/2000/svg">
<path d="M1.72337 1L13.2374 13.1333" stroke="CurrentColor" stroke-width="1.93003" stroke-linecap="round"/>
<path fill-rule="evenodd" clip-rule="evenodd" d="M1.5905 4.2234C1.01674 4.66874 0.483793 5.17398 0 5.73279L1.47334 7.30849C1.95924 6.7352 2.50862 6.22972 3.10812 5.80237L1.5905 4.2234ZM4.35978 7.10461C3.72629 7.50698 3.15463 8.01368 2.66676 8.60737L4.20009 10.176C4.66941 9.5806 5.25548 9.10183 5.91716 8.77336C5.92767 8.76814 5.93821 8.76296 5.94876 8.75782L4.35978 7.10461ZM12.717 9.26366L9.8989 6.33167C10.2342 6.43327 10.5629 6.56149 10.882 6.71567C11.7967 7.15756 12.6121 7.80253 13.2735 8.60737H13.3334L12.717 9.26366ZM7.19365 10.053L9.59528 12.5517L9.08675 13.0931L8.00011 14.25L6.13343 12.2698L5.39344 11.482C5.83087 10.8407 6.47884 10.2987 7.19365 10.053ZM7.87103 4.22183L5.93741 2.21005C6.6153 2.0707 7.3059 2 7.99997 2C9.50336 2 10.9904 2.33169 12.3673 2.97416C13.7442 3.61662 14.9811 4.55592 16 5.73279L14.52 7.30849C13.6962 6.33648 12.6898 5.55942 11.5661 5.02755C10.4424 4.49569 9.22642 4.22087 7.99667 4.22087C7.95477 4.22087 7.91289 4.22119 7.87103 4.22183Z" fill="currentColor"/>
</svg>
