<svg width="65" height="64" viewBox="0 0 65 64" fill="none" xmlns="http://www.w3.org/2000/svg">
<path d="M55.6935 25.45C53.8185 25.45 52.1685 26.225 50.956 27.4375C46.4935 24.35 40.481 22.3625 33.8185 22.15L37.281 6.55L48.306 9.025C48.306 11.725 50.506 13.925 53.206 13.925C55.956 13.925 58.1686 11.6625 58.1686 8.9625C58.1686 6.2625 55.9685 4 53.206 4C51.281 4 49.6185 5.1625 48.7935 6.75L36.6185 4.05C36.006 3.8875 35.406 4.325 35.2435 4.9375L31.4435 22.1375C24.831 22.4125 18.881 24.4 14.406 27.4875C13.1935 26.225 11.481 25.45 9.60602 25.45C2.65602 25.45 0.381017 34.775 6.74352 37.9625C6.51852 38.95 6.41852 40 6.41852 41.05C6.41852 51.525 18.2185 60.0125 32.706 60.0125C47.256 60.0125 59.0561 51.525 59.0561 41.05C59.0561 40 58.9436 38.9 58.6686 37.9125C64.9061 34.7125 62.6061 25.45 55.6935 25.45ZM16.831 38.625C16.831 35.875 19.031 33.6625 21.7935 33.6625C24.4935 33.6625 26.6935 35.8625 26.6935 38.625C26.6935 41.325 24.4935 43.525 21.7935 43.525C19.0435 43.5375 16.831 41.325 16.831 38.625ZM43.6185 50.3125C39.0685 54.8625 26.231 54.8625 21.681 50.3125C21.181 49.875 21.181 49.1 21.681 48.6C22.1185 48.1625 22.8935 48.1625 23.331 48.6C26.806 52.1625 38.331 52.225 41.956 48.6C42.3935 48.1625 43.1685 48.1625 43.606 48.6C44.1185 49.1 44.1185 49.875 43.6185 50.3125ZM43.5185 43.5375C40.8185 43.5375 38.6185 41.3375 38.6185 38.6375C38.6185 35.8875 40.8185 33.675 43.5185 33.675C46.2685 33.675 48.481 35.875 48.481 38.6375C48.4685 41.325 46.2685 43.5375 43.5185 43.5375Z" fill="white"/>
</svg>
