<svg width="64" height="64" viewBox="0 0 64 64" fill="none" xmlns="http://www.w3.org/2000/svg">
<path d="M21.7375 50.4645C21.7375 50.7147 21.45 50.9149 21.0875 50.9149C20.675 50.9524 20.3875 50.7523 20.3875 50.4645C20.3875 50.2143 20.675 50.0142 21.0375 50.0142C21.4125 49.9766 21.7375 50.1768 21.7375 50.4645ZM17.85 49.9016C17.7625 50.1518 18.0125 50.4395 18.3875 50.5146C18.7125 50.6397 19.0875 50.5146 19.1625 50.2644C19.2375 50.0142 19 49.7264 18.625 49.6138C18.3 49.5263 17.9375 49.6514 17.85 49.9016ZM23.375 49.6889C23.0125 49.7765 22.7625 50.0142 22.8 50.3019C22.8375 50.5521 23.1625 50.7147 23.5375 50.6272C23.9 50.5396 24.15 50.3019 24.1125 50.0517C24.075 49.814 23.7375 49.6514 23.375 49.6889ZM31.6 1.75C14.2625 1.75 1 14.9232 1 32.2748C1 46.1485 9.725 58.0207 22.1875 62.1991C23.7875 62.4868 24.35 61.4985 24.35 60.6853C24.35 59.9097 24.3125 55.6312 24.3125 53.0041C24.3125 53.0041 15.5625 54.8806 13.725 49.2761C13.725 49.2761 12.3 45.6356 10.25 44.6974C10.25 44.6974 7.3875 42.7333 10.45 42.7708C10.45 42.7708 13.5625 43.021 15.275 45.9984C18.0125 50.8273 22.6 49.4387 24.3875 48.613C24.675 46.6114 25.4875 45.2228 26.3875 44.3971C19.4 43.6215 12.35 42.6082 12.35 30.5734C12.35 27.1331 13.3 25.4067 15.3 23.2049C14.975 22.3918 13.9125 19.039 15.625 14.7105C18.2375 13.8974 24.25 18.0883 24.25 18.0883C26.75 17.3877 29.4375 17.0249 32.1 17.0249C34.7625 17.0249 37.45 17.3877 39.95 18.0883C39.95 18.0883 45.9625 13.8848 48.575 14.7105C50.2875 19.0515 49.225 22.3918 48.9 23.2049C50.9 25.4192 52.125 27.1456 52.125 30.5734C52.125 42.6457 44.7625 43.609 37.775 44.3971C38.925 45.3854 39.9 47.2619 39.9 50.2018C39.9 54.4177 39.8625 59.6345 39.8625 60.6603C39.8625 61.4735 40.4375 62.4618 42.025 62.174C54.525 58.0207 63 46.1485 63 32.2748C63 14.9232 48.9375 1.75 31.6 1.75ZM13.15 44.8975C12.9875 45.0226 13.025 45.3104 13.2375 45.548C13.4375 45.7482 13.725 45.8358 13.8875 45.6731C14.05 45.548 14.0125 45.2603 13.8 45.0226C13.6 44.8225 13.3125 44.7349 13.15 44.8975ZM11.8 43.8842C11.7125 44.0468 11.8375 44.247 12.0875 44.3721C12.2875 44.4972 12.5375 44.4597 12.625 44.2845C12.7125 44.1219 12.5875 43.9217 12.3375 43.7966C12.0875 43.7216 11.8875 43.7591 11.8 43.8842ZM15.85 48.3378C15.65 48.5004 15.725 48.8757 16.0125 49.1134C16.3 49.4012 16.6625 49.4387 16.825 49.2385C16.9875 49.0759 16.9125 48.7006 16.6625 48.4629C16.3875 48.1752 16.0125 48.1376 15.85 48.3378ZM14.425 46.4988C14.225 46.6239 14.225 46.9492 14.425 47.2369C14.625 47.5246 14.9625 47.6497 15.125 47.5246C15.325 47.362 15.325 47.0368 15.125 46.749C14.95 46.4613 14.625 46.3362 14.425 46.4988Z" fill="#252525"/>
</svg>
