<svg width="16" height="16" viewBox="0 0 16 16" fill="none" xmlns="http://www.w3.org/2000/svg">
<path d="M11.5 8C11.494 7.56917 11.3494 7.2397 11.0181 6.88489L6.60844 2.36747C6.36748 2.11405 6.09639 2 5.75302 2C5.06627 2 4.5 2.58923 4.5 3.29885C4.5 3.65998 4.63855 3.99577 4.90964 4.26822L8.6024 7.98733L4.90964 11.7255C4.64458 11.9979 4.5 12.3337 4.5 12.7011C4.5 13.4108 5.06627 14 5.75302 14C6.09037 14 6.36144 13.8797 6.60844 13.6325L11.0181 9.1088C11.3554 8.75394 11.5 8.41811 11.5 8Z" fill="#ffffff"/>
</svg>
