<svg width="22" height="22" viewBox="0 0 22 22" fill="none" xmlns="http://www.w3.org/2000/svg">
<path d="M3.55367 17.2639C2.47098 15.7589 1.83331 13.9123 1.83331 11.9167C1.83331 6.85407 5.93738 2.75 11 2.75C16.0626 2.75 20.1667 6.85407 20.1667 11.9167C20.1667 13.9123 19.529 15.7589 18.4463 17.2639" stroke="#ffffff" stroke-width="2.75001" stroke-linecap="round"/>
<path d="M11.2274 11.7462L11.2274 11.7462C10.9064 11.0579 10.0883 10.7602 9.4001 11.0811L5.24617 13.0181C4.55793 13.339 4.26017 14.1571 4.5811 14.8454L4.5811 14.8454C4.90204 15.5336 5.72013 15.8314 6.40838 15.5105L10.5623 13.5735C11.2505 13.2525 11.5483 12.4344 11.2274 11.7462Z" fill="#ffffff"/>
<path d="M11 14.6668C12.5188 14.6668 13.75 13.4355 13.75 11.9168C13.75 10.398 12.5188 9.16675 11 9.16675C9.48121 9.16675 8.24998 10.398 8.24998 11.9168C8.24998 13.4355 9.48121 14.6668 11 14.6668Z" fill="#ffffff"/>
</svg>
