<svg width="22" height="22" viewBox="0 0 22 22" fill="none" xmlns="http://www.w3.org/2000/svg">
<path d="M8.9375 0C8.57227 0 8.22315 0.14502 7.96533 0.402832L5.61816 2.75H4.125C1.86377 2.75 0 4.61377 0 6.875V16.5C0 18.7612 1.86377 20.625 4.125 20.625H17.875C20.1362 20.625 22 18.7612 22 16.5V6.875C22 4.61377 20.1362 2.75 17.875 2.75H16.3818L14.0347 0.402832C13.7769 0.14502 13.4277 0 13.0625 0L8.9375 0ZM9.50684 2.75H12.4932L14.8403 5.09717C15.0981 5.35498 15.4473 5.5 15.8125 5.5H17.875C18.6592 5.5 19.25 6.09082 19.25 6.875V16.5C19.25 17.2842 18.6592 17.875 17.875 17.875H4.125C3.34082 17.875 2.75 17.2842 2.75 16.5V6.875C2.75 6.09082 3.34082 5.5 4.125 5.5H6.1875C6.55273 5.5 6.90185 5.35498 7.15967 5.09717L9.50684 2.75Z" fill="#ffffff"/>
<path d="M11 5.5C7.97607 5.5 5.5 7.97607 5.5 11C5.5 14.0239 7.97607 16.5 11 16.5C14.0239 16.5 16.5 14.0239 16.5 11C16.5 7.97607 14.0239 5.5 11 5.5ZM11 8.25C12.5361 8.25 13.75 9.46387 13.75 11C13.75 12.5361 12.5361 13.75 11 13.75C9.46387 13.75 8.25 12.5361 8.25 11C8.25 9.46387 9.46387 8.25 11 8.25Z" fill="#ffffff"/>
</svg>
