<svg width="16" height="16" viewBox="0 0 16 16" fill="none" xmlns="http://www.w3.org/2000/svg">
<path fill-rule="evenodd" clip-rule="evenodd" d="M16 5.73279L14.52 7.30849C13.6962 6.33648 12.6898 5.55942 11.5661 5.02755C10.4424 4.49569 9.22642 4.22087 7.99667 4.22087C6.76693 4.22087 5.55089 4.49569 4.4272 5.02755C3.3035 5.55942 2.29719 6.33648 1.47334 7.30849L0 5.73279C1.01889 4.55592 2.2558 3.61662 3.63272 2.97416C5.00962 2.33169 6.49666 2 7.99997 2C9.50336 2 10.9904 2.33169 12.3673 2.97416C13.7442 3.61662 14.9811 4.55592 16 5.73279ZM13.3334 8.60737L11.8601 10.176C11.3908 9.5806 10.8047 9.10183 10.143 8.77336C9.48132 8.4449 8.76012 8.27469 8.03007 8.27469C7.30003 8.27469 6.57883 8.4449 5.91716 8.77336C5.25548 9.10183 4.66941 9.5806 4.20009 10.176L2.66676 8.60737C3.32815 7.80253 4.14351 7.15756 5.05817 6.71567C5.97283 6.27377 6.96566 6.04515 7.97007 6.04515C8.97453 6.04515 9.96734 6.27377 10.882 6.71567C11.7967 7.15756 12.612 7.80253 13.2735 8.60737H13.3334ZM9.8601 12.2698L10.6068 11.4678C10.001 10.5986 9.00997 9.91532 7.99344 9.91202C6.97819 9.9175 5.99001 10.6073 5.39344 11.482L6.13343 12.2698L8.00011 14.25L9.08675 13.0931L9.8601 12.2698Z" fill="#ffffff"/>
</svg>
